<?xml version="1.0" standalone="no"?>
<!DOCTYPE svg PUBLIC "-//W3C//DTD SVG 1.1//EN" "http://www.w3.org/Graphics/SVG/1.1/DTD/svg11.dtd" >
<!--
2019-12-20: andikafez@gmail.com
-->
<svg xmlns="http://www.w3.org/2000/svg" xmlns:xlink="http://www.w3.org/1999/xlink" version="1.1">
<metadata>
Created by FontForge 20170812 at Mon Jan 13 13:19:48 2020
 By www-data
Copyright (c) 2019, andikafez@gmail.com
</metadata>
<defs>
<font id="hellogalleriasans" horiz-adv-x="100" >
  <font-face 
    font-family="hellogalleriasans"
    font-weight="400"
    font-stretch="normal"
    units-per-em="1000"
    panose-1="2 0 5 3 0 0 0 0 0 0"
    ascent="800"
    descent="-200"
    x-height="800"
    cap-height="800"
    bbox="33 -395 1813 1109.22"
    underline-thickness="50"
    underline-position="-100"
    unicode-range="U+0001-E047"
  />
<missing-glyph horiz-adv-x="364" 
d="M33 0v666h265v-666h-265zM66 33h199v600h-199v-600z" />
    <glyph glyph-name="C_H" unicode="CH" horiz-adv-x="1372" 
d="M561 823q175 -4 310 -120l11 -9l-19 -23l-12 10q-70 60 -157.5 89t-178.5 21.5t-172.5 -50t-142.5 -113.5t-92 -161t-27.5 -185.5t41 -183t103.5 -153.5t150.5 -102t176 -36t176 35.5t150.5 101.5l11 11l21 -21l-11 -11q-70 -70 -160 -108t-187.5 -38t-188 38
t-160.5 108.5t-109.5 163t-43 193.5t29 196.5t97.5 171t152 121t184 52.5q24 2 48 2zM1293 800h30v-1000h-30v485h-596v-305h-30v640h30v-305h596v485z" />
    <glyph glyph-name="O_O" unicode="OO" horiz-adv-x="1706" 
d="M552 823q100 0 192 -40t162.5 -113.5t108.5 -169.5t38 -200t-38 -200t-108.5 -169.5t-162.5 -113.5t-192 -40t-192.5 40t-163 113.5t-108.5 169.5t-38 200t38 200t108.5 169.5t163 113.5t192.5 40zM551.5 793q-93.5 0 -180 -37.5t-153 -107t-102.5 -160t-36 -188.5
t36 -188.5t102.5 -160t153 -107t180 -37.5t180 37.5t153 107t102.5 160t36 188.5t-36 188.5t-102.5 160t-153 107t-180 37.5zM1172 823q100 0 192 -40t162.5 -113.5t108.5 -169.5t38 -200t-38 -200t-108.5 -169.5t-162.5 -113.5t-192 -40t-192.5 40t-163 113.5t-108.5 169.5
t-38 200t38 200t108.5 169.5t163 113.5t192.5 40zM1171.5 793q-93.5 0 -180 -37.5t-153 -107t-102.5 -160t-36 -188.5t36 -188.5t102.5 -160t153 -107t180 -37.5t180 37.5t153 107t102.5 160t36 188.5t-36 188.5t-102.5 160t-153 107t-180 37.5z" />
    <glyph glyph-name="D_C" unicode="DC" horiz-adv-x="1344" 
d="M50 800h359q103 0 184 -42t136 -116q52 -69 78 -158t25 -184t-28 -184t-80 -159q-56 -73 -137 -115t-183 -42h-354v0v1000v0zM80 770v-940h324q186 0 296 146q49 64 75 149t27 175.5t-24 175t-73 148.5q-109 146 -296 146h-329zM947 823q175 -4 310 -120l11 -9l-19 -23
l-12 10q-70 60 -157.5 89t-178.5 21.5t-172.5 -50t-142.5 -113.5t-92 -161t-27.5 -185.5t41 -183t103.5 -153.5t150.5 -102t176 -36t176 35.5t150.5 101.5l11 11l21 -21l-11 -11q-70 -70 -160 -108t-187.5 -38t-188 38t-160.5 108.5t-109.5 163t-43 193.5t29 196.5t97.5 171
t152 121t184 52.5q24 2 48 2z" />
    <glyph glyph-name="F_L" unicode="FL" horiz-adv-x="1351" 
d="M50 800h30h581h15v-970h625v-30h-655v0v970h-566v-455h460v-30h-460v-485h-30v485v30v455v30v0z" />
    <glyph glyph-name="N_N" unicode="NN" horiz-adv-x="1680" 
d="M50 800h30q0 -120 118 -261q78 -95 264 -254q7 -5 40.5 -34t43.5 -37.5t38 -32.5t41.5 -36.5t35 -32.5t38 -36.5t31.5 -33.5q65 -70 95 -129v872v15h30q0 -120 118 -261q78 -95 264 -254q7 -5 40.5 -34t43.5 -37.5t38 -32.5t41.5 -36.5t35 -32.5t38 -36.5t31.5 -33.5
q65 -70 95 -129v872v15h30v-15v-985h-30q0 95 -117 222q-13 14 -28.5 29.5t-28.5 28t-33.5 31t-32 29t-35.5 31.5t-34 29.5t-37.5 31.5t-35.5 30q-91 78 -155 137.5t-113 119.5q-64 77 -95 147v-866h-30q0 95 -117 222q-13 14 -28.5 29.5t-28.5 28t-33.5 31t-32 29
t-35.5 31.5t-34 29.5t-37.5 31.5t-35.5 30q-91 78 -155 137.5t-113 119.5q-64 77 -95 147v-851v-15h-30v15v985z" />
    <glyph glyph-name="T_T" unicode="TT" horiz-adv-x="1337" 
d="M50 800h1237v-30h-443v-970h-31v970h-289v-970h-31v970h-443v30z" />
    <glyph glyph-name="G_A" unicode="GA" horiz-adv-x="1863" 
d="M1370 811l443 -1011h-33l-92 210q-78 1 -146.5 12t-130.5 33t-102.5 40t-100 48.5t-80.5 41.5l-169 -385h-33l174 398q-68 40 -110 56.5t-102 19.5v-287v-9v-11l-5 -5q-63 -73 -148.5 -115t-180 -47t-184 27.5t-160 98t-112 154t-47.5 186.5t24 191.5t91.5 168
t145.5 119.5t179 53q23 2 47 1q169 -3 299 -117l12 -10l-20 -22l-11 10q-68 59 -152.5 87t-172.5 20.5t-167 -49.5t-136.5 -112t-86 -157.5t-22.5 -180t45 -176t105 -145t149.5 -92t172.5 -25.5q87 5 166 43.5t138 104.5v296h-377v30h379h29q62 -3 108 -20.5t117 -58.5z
M1370 736l-230 -524q23 -11 82 -41t96.5 -47.5t96.5 -38.5t122.5 -31.5t137.5 -12.5z" />
    <glyph glyph-name="L_E" unicode="LE" horiz-adv-x="825" 
d="M722 800v-30h-477l1 -375h439v-30h-439v-385l506 -2v-30l-537 2v850h507zM50 800h30v-970h695v-30h-725v1000z" />
    <glyph glyph-name="L_A" unicode="LA" horiz-adv-x="1208" 
d="M715 736l-223 -515q57 -3 110 -18t82 -29.5t76 -41.5q37 -21 56 -31t53.5 -24.5t70 -21t77.5 -8.5zM1158 -200h-33l-95 217q-47 0 -87.5 7t-78.5 22.5t-60 26.5t-59 33q-48 28 -76 41.5t-80 28t-110 16.5l-119 -275h-33l388 894zM50 799h30v-970h625v-30h-655v0v1000z
" />
    <glyph glyph-name="L_C" unicode="LC" horiz-adv-x="930" 
d="M50 800h30v-970h800v-30h-830v1000zM583 795q148 0 262 -99l11 -10l-20 -23l-11 10q-56 49 -126 72.5t-143 18t-139 -39t-115 -90.5t-74 -129.5t-22 -149t33.5 -146.5t84 -122.5t121.5 -80.5t141.5 -27.5t141.5 30t120 83.5l10 11l22 -22l-10 -10q-57 -58 -130.5 -90
t-153 -32.5t-153 29.5t-131 87t-90.5 132t-36 157.5t23.5 160t79.5 139t124 98t150 42.5q10 1 20 1h10z" />
    <glyph glyph-name="L_L" unicode="LL" horiz-adv-x="831" 
d="M50 800h30v-971l701 1v-30h-731v1000zM232 799h30v-789h499v-30h-529v0v819z" />
    <glyph glyph-name="L_U" unicode="LU" horiz-adv-x="892" 
d="M50 800h30v-970h763v-30h-793v1000zM204 800h30v-544q0 -130 90 -206q81 -69 199 -69t200 69q89 76 89 206v544h31v-544q0 -144 -101 -229q-89 -76 -218.5 -76t-219.5 76q-100 85 -100 229v544z" />
    <glyph glyph-name="L_S" unicode="LS" horiz-adv-x="890" 
d="M50 800h30v-970h760v-30h-790v0v1000zM514 795h7q58 -1 111 -18t96.5 -47t69 -78.5t25.5 -107.5h-30q0 120 -113 182q-98 53 -222 36q-123 -17 -178 -94q-31 -44 -31 -99q0 -43 21 -72.5t63 -52.5q55 -30 200 -66q52 -13 76.5 -19.5t64 -20t66.5 -27.5q100 -53 100 -146
q0 -59 -27.5 -104t-76.5 -73q-90 -54 -220 -46t-220 72q-103 72 -103 184h30q0 -96 90 -159q84 -59 204.5 -66.5t203.5 41.5q89 52 89 151q0 41 -21 69t-63 50q-53 28 -200 65q-149 37 -207 69q-101 55 -101 151q0 72 43.5 125t109.5 77t143 24z" />
    <glyph glyph-name="R_I" unicode="RI" horiz-adv-x="1108" 
d="M50 800h28h2h226q161 -2 245 -77q84 -73 83 -196q-1 -126 -84 -198q-57 -49 -146 -66q47 -23 90 -73q20 -24 41 -55.5t45 -70.5t39 -60q75 -112 155 -149q110 -51 275 3l9 -29q-176 -57 -297 -1q-50 23 -90 63t-77 96q-16 22 -40 61.5t-44 69.5t-39 52q-35 41 -73 62.5
t-88 21.5h-1.5h-2.5h-226v-454h-30v1000zM878 800h30v-840h-30v840zM80 770v-485h226q144 -2 224 67q73 63 74 175q0 109 -73 173q-78 70 -225 70h-226z" />
    <glyph glyph-name="R_O" unicode="RO" horiz-adv-x="1601" 
d="M50 800h30h226q161 -2 245 -77q84 -73 83 -196q-1 -126 -84 -198q-58 -50 -151 -67q55 -28 124 -103q8 -8 87 -99t127 -135q144 -133 308 -159q212 -34 494 98l13 -28q-291 -136 -512 -100q-172 28 -323 166q-51 47 -130.5 138.5t-85.5 98.5q-53 57 -98 86t-93 29h-1.5
h-2.5h-226v-454h-30v1000zM1138 800h5q74 -1 144 -29.5t126 -80.5q59 -56 93.5 -131t39 -158t-21.5 -162t-79 -141l-10 -12v0v0l-10 -10q-57 -59 -131.5 -90.5t-154.5 -32t-154.5 31t-131.5 89.5t-89 134.5t-33.5 159.5t27.5 160.5t83.5 138t127.5 95t154 38.5h15zM1138 770
q-7 0 -14 -1q-74 -2 -141.5 -34t-118.5 -88.5t-77.5 -128.5t-25 -149.5t31 -148.5t82.5 -125t121.5 -83t142.5 -28.5t142.5 30t121.5 83.5l10 10l9 10q49 58 73 131.5t20 150.5t-36 147t-87 122q-106 100 -250 102h-4zM80 770v-485h226q146 0 224 67q73 63 74 175
q0 109 -73 173q-78 70 -225 70h-226z" />
    <glyph glyph-name="R_U" unicode="RU" horiz-adv-x="1434" 
d="M50 800h30h226q158 0 245 -77q84 -73 83 -196q-1 -126 -84 -198q-58 -50 -150 -67q48 -26 98 -88q18 -22 70.5 -96t87.5 -113q109 -121 250 -155q188 -43 469 48l9 -29q-289 -94 -484 -48q-152 35 -266 164q-37 41 -90 115.5t-69 94.5q-40 49 -78 74t-87 25h-1.5h-2.5
h-226v-454h-30v1000zM746 800h30v-539q0 -130 90 -206q81 -69 199 -69t199 69q90 76 90 206v539h30v-539q0 -144 -100 -229q-90 -76 -219 -76t-219 76q-100 85 -100 229v539zM80 770v-485h226q146 0 224 67q73 63 74 175q0 109 -73 173q-78 70 -225 70h-226z" />
    <glyph glyph-name="R_S" unicode="RS" horiz-adv-x="1434" 
d="M50 800h30h226q161 -2 245 -77q84 -73 83 -196q-1 -126 -84 -198q-58 -50 -150 -67q48 -26 98 -88q18 -22 70.5 -96t87.5 -113q109 -121 250 -155q188 -43 469 48l9 -29q-289 -94 -484 -48q-152 35 -266 164q-37 41 -90 115.5t-69 94.5q-40 49 -78 74t-87 25h-1.5h-2.5
h-226v-454h-30v1000zM1058 800h7q58 -1 111.5 -18t96.5 -47t68.5 -78.5t25.5 -107.5h-30q0 83 -56 140t-136 71.5t-160 3.5t-136 -62.5t-56 -127.5q0 -43 21 -72.5t63 -52.5q55 -30 200 -66q52 -13 76.5 -19.5t64 -20t66.5 -27.5q100 -53 100 -146q0 -59 -27.5 -104
t-76.5 -73q-90 -54 -220 -46t-220 72q-103 72 -103 184h30q0 -96 90 -159q84 -59 204.5 -66.5t203.5 41.5q89 52 89 151q0 41 -21 69t-63 50q-53 28 -200 65q-149 37 -207 69q-101 55 -101 151q0 72 43.5 125t109.5 77t143 24zM80 770v-485h226q146 0 224 67q73 63 74 175
q0 109 -73 173q-78 70 -225 70h-226z" />
    <glyph glyph-name="R_C" unicode="RC" horiz-adv-x="1471" 
d="M50 800h30h226q158 0 245 -77q84 -73 83 -196q-1 -126 -84 -198q-58 -50 -149 -67q52 -26 112 -91q22 -25 84.5 -101t101.5 -116q124 -125 267 -157q187 -41 444 61l11 -28q-266 -106 -462 -62q-151 33 -281 164q-41 42 -104 119t-83 99q-47 51 -89.5 77.5t-91.5 26.5
h-1.5h-2.5h-226v-454h-30v1000zM1124 800q148 0 262 -99l11 -10l-20 -23l-11 10q-56 49 -126 72.5t-143 18t-139 -39t-115 -90.5t-74 -129.5t-22 -149t33.5 -146.5t84 -122.5t121.5 -80.5t141.5 -27.5t141.5 30t120 83.5l10 11l22 -22l-10 -10q-57 -58 -130.5 -90
t-153 -32.5t-153 29.5t-131 87t-90.5 132t-36 157.5t23.5 160t79.5 139t124 98t151 42.5q9 1 19 1h10zM80 770v-485h226q144 -2 224 67q73 63 74 175q0 109 -73 173q-78 70 -225 70h-226z" />
    <glyph glyph-name="o_c" unicode="oc" horiz-adv-x="1599" 
d="M1201 823q175 -4 310 -120l11 -9l-19 -23l-12 10q-70 60 -157.5 89t-178.5 21.5t-172.5 -50t-142.5 -113.5t-92 -161t-27.5 -185.5t41 -183t103.5 -153.5t150.5 -102t176 -36t176 35.5t150.5 101.5l11 11l21 -21l-11 -11q-70 -70 -160 -108t-187.5 -38t-188 38
t-160.5 108.5t-109.5 163t-43 193.5t29 196.5t97.5 171t152 121t184 52.5q24 2 48 2zM552 823q100 0 192 -40t162.5 -113.5t108.5 -169.5t38 -200t-38 -200t-108.5 -169.5t-162.5 -113.5t-192 -40t-192.5 40t-163 113.5t-108.5 169.5t-38 200t38 200t108.5 169.5t163 113.5
t192.5 40zM551.5 793q-93.5 0 -180 -37.5t-153 -107t-102.5 -160t-36 -188.5t36 -188.5t102.5 -160t153 -107t180 -37.5t180 37.5t153 107t102.5 160t36 188.5t-36 188.5t-102.5 160t-153 107t-180 37.5z" />
    <glyph glyph-name="c_h" unicode="ch" horiz-adv-x="1372" 
d="M561 823q175 -4 310 -120l11 -9l-19 -23l-12 10q-70 60 -157.5 89t-178.5 21.5t-172.5 -50t-142.5 -113.5t-92 -161t-27.5 -185.5t41 -183t103.5 -153.5t150.5 -102t176 -36t176 35.5t150.5 101.5l11 11l21 -21l-11 -11q-70 -70 -160 -108t-187.5 -38t-188 38
t-160.5 108.5t-109.5 163t-43 193.5t29 196.5t97.5 171t152 121t184 52.5q24 2 48 2zM1293 800h30v-1000h-30v485h-596v-305h-30v640h30v-305h596v485z" />
    <glyph glyph-name="o_o" unicode="oo" horiz-adv-x="1706" 
d="M552 823q100 0 192 -40t162.5 -113.5t108.5 -169.5t38 -200t-38 -200t-108.5 -169.5t-162.5 -113.5t-192 -40t-192.5 40t-163 113.5t-108.5 169.5t-38 200t38 200t108.5 169.5t163 113.5t192.5 40zM551.5 793q-93.5 0 -180 -37.5t-153 -107t-102.5 -160t-36 -188.5
t36 -188.5t102.5 -160t153 -107t180 -37.5t180 37.5t153 107t102.5 160t36 188.5t-36 188.5t-102.5 160t-153 107t-180 37.5zM1172 823q100 0 192 -40t162.5 -113.5t108.5 -169.5t38 -200t-38 -200t-108.5 -169.5t-162.5 -113.5t-192 -40t-192.5 40t-163 113.5t-108.5 169.5
t-38 200t38 200t108.5 169.5t163 113.5t192.5 40zM1171.5 793q-93.5 0 -180 -37.5t-153 -107t-102.5 -160t-36 -188.5t36 -188.5t102.5 -160t153 -107t180 -37.5t180 37.5t153 107t102.5 160t36 188.5t-36 188.5t-102.5 160t-153 107t-180 37.5z" />
    <glyph glyph-name="d_c" unicode="dc" horiz-adv-x="1344" 
d="M50 800h359q103 0 184 -42t136 -116q52 -69 78 -158t25 -184t-28 -184t-80 -159q-56 -73 -137 -115t-183 -42h-354v0v1000v0zM80 770v-940h324q186 0 296 146q49 64 75 149t27 175.5t-24 175t-73 148.5q-109 146 -296 146h-329zM947 823q175 -4 310 -120l11 -9l-19 -23
l-12 10q-70 60 -157.5 89t-178.5 21.5t-172.5 -50t-142.5 -113.5t-92 -161t-27.5 -185.5t41 -183t103.5 -153.5t150.5 -102t176 -36t176 35.5t150.5 101.5l11 11l21 -21l-11 -11q-70 -70 -160 -108t-187.5 -38t-188 38t-160.5 108.5t-109.5 163t-43 193.5t29 196.5t97.5 171
t152 121t184 52.5q24 2 48 2z" />
    <glyph glyph-name="f_l" unicode="fl" horiz-adv-x="1351" 
d="M50 800h30h581h15v-970h625v-30h-655v0v970h-566v-455h460v-30h-460v-485h-30v485v30v455v30v0z" />
    <glyph glyph-name="n_n" unicode="nn" horiz-adv-x="1680" 
d="M50 800h30q0 -120 118 -261q78 -95 264 -254q7 -5 40.5 -34t43.5 -37.5t38 -32.5t41.5 -36.5t35 -32.5t38 -36.5t31.5 -33.5q65 -70 95 -129v872v15h30q0 -120 118 -261q78 -95 264 -254q7 -5 40.5 -34t43.5 -37.5t38 -32.5t41.5 -36.5t35 -32.5t38 -36.5t31.5 -33.5
q65 -70 95 -129v872v15h30v-15v-985h-30q0 95 -117 222q-13 14 -28.5 29.5t-28.5 28t-33.5 31t-32 29t-35.5 31.5t-34 29.5t-37.5 31.5t-35.5 30q-91 78 -155 137.5t-113 119.5q-64 77 -95 147v-866h-30q0 95 -117 222q-13 14 -28.5 29.5t-28.5 28t-33.5 31t-32 29
t-35.5 31.5t-34 29.5t-37.5 31.5t-35.5 30q-91 78 -155 137.5t-113 119.5q-64 77 -95 147v-851v-15h-30v15v985z" />
    <glyph glyph-name="t_t" unicode="tt" horiz-adv-x="1337" 
d="M50 800h1237v-30h-443v-970h-31v970h-289v-970h-31v970h-443v30z" />
    <glyph glyph-name="g_a" unicode="ga" horiz-adv-x="1863" 
d="M1370 811l443 -1011h-33l-92 210q-78 1 -146.5 12t-130.5 33t-102.5 40t-100 48.5t-80.5 41.5l-169 -385h-33l174 398q-68 40 -110 56.5t-102 19.5v-287v-9v-11l-5 -5q-63 -73 -148.5 -115t-180 -47t-184 27.5t-160 98t-112 154t-47.5 186.5t24 191.5t91.5 168
t145.5 119.5t179 53q23 2 47 1q169 -3 299 -117l12 -10l-20 -22l-11 10q-68 59 -152.5 87t-172.5 20.5t-167 -49.5t-136.5 -112t-86 -157.5t-22.5 -180t45 -176t105 -145t149.5 -92t172.5 -25.5q87 5 166 43.5t138 104.5v296h-377v30h379h29q62 -3 108 -20.5t117 -58.5z
M1370 736l-230 -524q23 -11 82 -41t96.5 -47.5t96.5 -38.5t122.5 -31.5t137.5 -12.5z" />
    <glyph glyph-name="l_e" unicode="le" horiz-adv-x="825" 
d="M722 800v-30h-477l1 -375h439v-30h-439v-385l506 -2v-30l-537 2v850h507zM50 800h30v-970h695v-30h-725v1000z" />
    <glyph glyph-name="l_a" unicode="la" horiz-adv-x="1208" 
d="M715 736l-223 -515q57 -3 110 -18t82 -29.5t76 -41.5q37 -21 56 -31t53.5 -24.5t70 -21t77.5 -8.5zM1158 -200h-33l-95 217q-47 0 -87.5 7t-78.5 22.5t-60 26.5t-59 33q-48 28 -76 41.5t-80 28t-110 16.5l-119 -275h-33l388 894zM50 799h30v-970h625v-30h-655v0v1000z
" />
    <glyph glyph-name="l_c" unicode="lc" horiz-adv-x="930" 
d="M50 800h30v-970h800v-30h-830v1000zM583 795q148 0 262 -99l11 -10l-20 -23l-11 10q-56 49 -126 72.5t-143 18t-139 -39t-115 -90.5t-74 -129.5t-22 -149t33.5 -146.5t84 -122.5t121.5 -80.5t141.5 -27.5t141.5 30t120 83.5l10 11l22 -22l-10 -10q-57 -58 -130.5 -90
t-153 -32.5t-153 29.5t-131 87t-90.5 132t-36 157.5t23.5 160t79.5 139t124 98t150 42.5q10 1 20 1h10z" />
    <glyph glyph-name="l_l" unicode="ll" horiz-adv-x="831" 
d="M50 800h30v-971l701 1v-30h-731v1000zM232 799h30v-789h499v-30h-529v0v819z" />
    <glyph glyph-name="l_u" unicode="lu" horiz-adv-x="892" 
d="M50 800h30v-970h763v-30h-793v1000zM204 800h30v-544q0 -130 90 -206q81 -69 199 -69t200 69q89 76 89 206v544h31v-544q0 -144 -101 -229q-89 -76 -218.5 -76t-219.5 76q-100 85 -100 229v544z" />
    <glyph glyph-name="l_s" unicode="ls" horiz-adv-x="890" 
d="M50 800h30v-970h760v-30h-790v0v1000zM514 795h7q58 -1 111 -18t96.5 -47t69 -78.5t25.5 -107.5h-30q0 120 -113 182q-98 53 -222 36q-123 -17 -178 -94q-31 -44 -31 -99q0 -43 21 -72.5t63 -52.5q55 -30 200 -66q52 -13 76.5 -19.5t64 -20t66.5 -27.5q100 -53 100 -146
q0 -59 -27.5 -104t-76.5 -73q-90 -54 -220 -46t-220 72q-103 72 -103 184h30q0 -96 90 -159q84 -59 204.5 -66.5t203.5 41.5q89 52 89 151q0 41 -21 69t-63 50q-53 28 -200 65q-149 37 -207 69q-101 55 -101 151q0 72 43.5 125t109.5 77t143 24z" />
    <glyph glyph-name="r_i" unicode="ri" horiz-adv-x="1108" 
d="M50 800h28h2h226q161 -2 245 -77q84 -73 83 -196q-1 -126 -84 -198q-57 -49 -146 -66q47 -23 90 -73q20 -24 41 -55.5t45 -70.5t39 -60q75 -112 155 -149q110 -51 275 3l9 -29q-176 -57 -297 -1q-50 23 -90 63t-77 96q-16 22 -40 61.5t-44 69.5t-39 52q-35 41 -73 62.5
t-88 21.5h-1.5h-2.5h-226v-454h-30v1000zM878 800h30v-840h-30v840zM80 770v-485h226q144 -2 224 67q73 63 74 175q0 109 -73 173q-78 70 -225 70h-226z" />
    <glyph glyph-name="r_o" unicode="ro" horiz-adv-x="1601" 
d="M50 800h30h226q161 -2 245 -77q84 -73 83 -196q-1 -126 -84 -198q-58 -50 -151 -67q55 -28 124 -103q8 -8 87 -99t127 -135q144 -133 308 -159q212 -34 494 98l13 -28q-291 -136 -512 -100q-172 28 -323 166q-51 47 -130.5 138.5t-85.5 98.5q-53 57 -98 86t-93 29h-1.5
h-2.5h-226v-454h-30v1000zM1138 800h5q74 -1 144 -29.5t126 -80.5q59 -56 93.5 -131t39 -158t-21.5 -162t-79 -141l-10 -12v0v0l-10 -10q-57 -59 -131.5 -90.5t-154.5 -32t-154.5 31t-131.5 89.5t-89 134.5t-33.5 159.5t27.5 160.5t83.5 138t127.5 95t154 38.5h15zM1138 770
q-7 0 -14 -1q-74 -2 -141.5 -34t-118.5 -88.5t-77.5 -128.5t-25 -149.5t31 -148.5t82.5 -125t121.5 -83t142.5 -28.5t142.5 30t121.5 83.5l10 10l9 10q49 58 73 131.5t20 150.5t-36 147t-87 122q-106 100 -250 102h-4zM80 770v-485h226q146 0 224 67q73 63 74 175
q0 109 -73 173q-78 70 -225 70h-226z" />
    <glyph glyph-name="r_u" unicode="ru" horiz-adv-x="1434" 
d="M50 800h30h226q158 0 245 -77q84 -73 83 -196q-1 -126 -84 -198q-58 -50 -150 -67q48 -26 98 -88q18 -22 70.5 -96t87.5 -113q109 -121 250 -155q188 -43 469 48l9 -29q-289 -94 -484 -48q-152 35 -266 164q-37 41 -90 115.5t-69 94.5q-40 49 -78 74t-87 25h-1.5h-2.5
h-226v-454h-30v1000zM746 800h30v-539q0 -130 90 -206q81 -69 199 -69t199 69q90 76 90 206v539h30v-539q0 -144 -100 -229q-90 -76 -219 -76t-219 76q-100 85 -100 229v539zM80 770v-485h226q146 0 224 67q73 63 74 175q0 109 -73 173q-78 70 -225 70h-226z" />
    <glyph glyph-name="r_s" unicode="rs" horiz-adv-x="1434" 
d="M50 800h30h226q161 -2 245 -77q84 -73 83 -196q-1 -126 -84 -198q-58 -50 -150 -67q48 -26 98 -88q18 -22 70.5 -96t87.5 -113q109 -121 250 -155q188 -43 469 48l9 -29q-289 -94 -484 -48q-152 35 -266 164q-37 41 -90 115.5t-69 94.5q-40 49 -78 74t-87 25h-1.5h-2.5
h-226v-454h-30v1000zM1058 800h7q58 -1 111.5 -18t96.5 -47t68.5 -78.5t25.5 -107.5h-30q0 83 -56 140t-136 71.5t-160 3.5t-136 -62.5t-56 -127.5q0 -43 21 -72.5t63 -52.5q55 -30 200 -66q52 -13 76.5 -19.5t64 -20t66.5 -27.5q100 -53 100 -146q0 -59 -27.5 -104
t-76.5 -73q-90 -54 -220 -46t-220 72q-103 72 -103 184h30q0 -96 90 -159q84 -59 204.5 -66.5t203.5 41.5q89 52 89 151q0 41 -21 69t-63 50q-53 28 -200 65q-149 37 -207 69q-101 55 -101 151q0 72 43.5 125t109.5 77t143 24zM80 770v-485h226q146 0 224 67q73 63 74 175
q0 109 -73 173q-78 70 -225 70h-226z" />
    <glyph glyph-name="r_c" unicode="rc" horiz-adv-x="1471" 
d="M50 800h30h226q158 0 245 -77q84 -73 83 -196q-1 -126 -84 -198q-58 -50 -149 -67q52 -26 112 -91q22 -25 84.5 -101t101.5 -116q124 -125 267 -157q187 -41 444 61l11 -28q-266 -106 -462 -62q-151 33 -281 164q-41 42 -104 119t-83 99q-47 51 -89.5 77.5t-91.5 26.5
h-1.5h-2.5h-226v-454h-30v1000zM1124 800q148 0 262 -99l11 -10l-20 -23l-11 10q-56 49 -126 72.5t-143 18t-139 -39t-115 -90.5t-74 -129.5t-22 -149t33.5 -146.5t84 -122.5t121.5 -80.5t141.5 -27.5t141.5 30t120 83.5l10 11l22 -22l-10 -10q-57 -58 -130.5 -90
t-153 -32.5t-153 29.5t-131 87t-90.5 132t-36 157.5t23.5 160t79.5 139t124 98t151 42.5q9 1 19 1h10zM80 770v-485h226q144 -2 224 67q73 63 74 175q0 109 -73 173q-78 70 -225 70h-226z" />
    <glyph glyph-name="r_a" unicode="ra" horiz-adv-x="1721" 
d="M1228 736l-223 -515q57 -3 110 -18t82 -29.5t75 -41.5q37 -21 56.5 -31t53.5 -24.5t70 -21t78 -8.5zM1671 -200h-33l-95 217q-47 0 -88 7t-78.5 22.5t-59.5 26.5t-60 33q-48 28 -76 41.5t-80 28t-109 16.5l-119 -275h-33l387 894zM50 800h28h2h226q161 -2 245 -77
q84 -73 83 -196q-1 -126 -84 -198q-57 -49 -146 -66q47 -23 90 -73q20 -24 41 -55.5t45 -70.5t39 -60q75 -112 155 -149q110 -51 275 3l9 -29q-176 -57 -297 -1q-50 23 -90 63t-77 96q-16 22 -40 61.5t-44 69.5t-39 52q-35 41 -73 62.5t-88 21.5h-1.5h-2.5h-226v-454h-30
v1000zM80 770v-485h226q144 -2 224 67q73 63 74 175q0 109 -73 173q-78 70 -225 70h-226z" />
    <glyph glyph-name="R_A" unicode="RA" horiz-adv-x="1721" 
d="M1228 736l-223 -515q57 -3 110 -18t82 -29.5t75 -41.5q37 -21 56.5 -31t53.5 -24.5t70 -21t78 -8.5zM1671 -200h-33l-95 217q-47 0 -88 7t-78.5 22.5t-59.5 26.5t-60 33q-48 28 -76 41.5t-80 28t-109 16.5l-119 -275h-33l387 894zM50 800h28h2h226q161 -2 245 -77
q84 -73 83 -196q-1 -126 -84 -198q-57 -49 -146 -66q47 -23 90 -73q20 -24 41 -55.5t45 -70.5t39 -60q75 -112 155 -149q110 -51 275 3l9 -29q-176 -57 -297 -1q-50 23 -90 63t-77 96q-16 22 -40 61.5t-44 69.5t-39 52q-35 41 -73 62.5t-88 21.5h-1.5h-2.5h-226v-454h-30
v1000zM80 770v-485h226q144 -2 224 67q73 63 74 175q0 109 -73 173q-78 70 -225 70h-226z" />
    <glyph glyph-name="D_O" unicode="DO" horiz-adv-x="1579" 
d="M1028 823q100 0 192 -40t162.5 -113.5t108.5 -169.5t38 -200t-38 -200t-108.5 -169.5t-162.5 -113.5t-192 -40t-192.5 40t-163 113.5t-108.5 169.5t-38 200t38 200t108.5 169.5t163 113.5t192.5 40zM1027.5 793q-93.5 0 -180 -37.5t-153 -107t-102.5 -160t-36 -188.5
t36 -188.5t102.5 -160t153 -107t180 -37.5t180 37.5t153 107t102.5 160t36 188.5t-36 188.5t-102.5 160t-153 107t-180 37.5zM50 800h359q103 0 184 -42t136 -116q52 -69 78 -158t25 -184t-28 -184t-80 -159q-56 -73 -137 -115t-183 -42h-354v0v1000v0zM80 770v-940h324
q186 0 296 146q49 64 75 149t27 175.5t-24 175t-73 148.5q-109 146 -296 146h-329z" />
    <glyph glyph-name="d_o" unicode="do" horiz-adv-x="1579" 
d="M1028 823q100 0 192 -40t162.5 -113.5t108.5 -169.5t38 -200t-38 -200t-108.5 -169.5t-162.5 -113.5t-192 -40t-192.5 40t-163 113.5t-108.5 169.5t-38 200t38 200t108.5 169.5t163 113.5t192.5 40zM1027.5 793q-93.5 0 -180 -37.5t-153 -107t-102.5 -160t-36 -188.5
t36 -188.5t102.5 -160t153 -107t180 -37.5t180 37.5t153 107t102.5 160t36 188.5t-36 188.5t-102.5 160t-153 107t-180 37.5zM50 800h359q103 0 184 -42t136 -116q52 -69 78 -158t25 -184t-28 -184t-80 -159q-56 -73 -137 -115t-183 -42h-354v0v1000v0zM80 770v-940h324
q186 0 296 146q49 64 75 149t27 175.5t-24 175t-73 148.5q-109 146 -296 146h-329z" />
    <glyph glyph-name=".notdef" horiz-adv-x="364" 
d="M33 0v666h265v-666h-265zM66 33h199v600h-199v-600z" />
    <glyph glyph-name="uni0000" 
 />
    <glyph glyph-name="uni0000" 
 />
    <glyph glyph-name="uni000D" unicode="&#xd;" 
 />
    <glyph glyph-name="uni0001" 
 />
    <glyph glyph-name="uni0002" 
 />
    <glyph glyph-name="uni0003" 
 />
    <glyph glyph-name="uni0004" 
 />
    <glyph glyph-name="uni0005" 
 />
    <glyph glyph-name="uni0006" 
 />
    <glyph glyph-name="uni0007" 
 />
    <glyph glyph-name="uni0008" 
 />
    <glyph glyph-name="uni0009" unicode="&#x9;" 
 />
    <glyph glyph-name="uni000A" unicode="&#xa;" 
 />
    <glyph glyph-name="uni000B" 
 />
    <glyph glyph-name="uni000C" 
 />
    <glyph glyph-name="uni000E" 
 />
    <glyph glyph-name="uni000F" 
 />
    <glyph glyph-name="uni0010" 
 />
    <glyph glyph-name="uni0011" 
 />
    <glyph glyph-name="uni0012" 
 />
    <glyph glyph-name="uni0013" 
 />
    <glyph glyph-name="uni0014" 
 />
    <glyph glyph-name="uni0015" 
 />
    <glyph glyph-name="uni0016" 
 />
    <glyph glyph-name="uni0017" 
 />
    <glyph glyph-name="uni0018" 
 />
    <glyph glyph-name="uni0019" 
 />
    <glyph glyph-name="uni001A" 
 />
    <glyph glyph-name="uni001B" 
 />
    <glyph glyph-name="uni001C" 
 />
    <glyph glyph-name="uni001D" 
 />
    <glyph glyph-name="uni001E" 
 />
    <glyph glyph-name="uni001F" 
 />
    <glyph glyph-name="space" unicode=" " horiz-adv-x="600" 
 />
    <glyph glyph-name="exclam" unicode="!" horiz-adv-x="130" 
d="M50 783h30v-953h-30v953zM50 -226h30v-30h-30v30z" />
    <glyph glyph-name="quotedbl" unicode="&#x22;" horiz-adv-x="182" 
d="M56 836h30l-20 -72h-16zM102 836h30l-20 -72h-16z" />
    <glyph glyph-name="numbersign" unicode="#" horiz-adv-x="1168" 
d="M504 800h31l-77 -290h337l78 290h31l-77 -290h292v-30h-300l-87 -322h309v-30h-317l-88 -328h-31l88 328h-338l-88 -328h-31l88 328h-274v30h282l86 322h-291v30h299zM450 480l-87 -322h338l86 322h-337z" />
    <glyph glyph-name="dollar" unicode="$" horiz-adv-x="860" 
d="M428 806q69 -1 133 -20t115.5 -54.5t82.5 -93t31 -128.5h-30q0 139 -125 214q-109 64 -252 51q-141 -13 -217 -93q-56 -60 -56 -142q0 -51 26 -87t76 -63q65 -36 237 -79q61 -15 90.5 -23t75.5 -24t78 -33q117 -62 117 -171q0 -69 -32.5 -121.5t-88.5 -86.5
q-99 -58 -240 -54v-56h-30v57q-146 12 -249 84q-120 85 -120 217h30q0 -116 108 -192q99 -70 243 -79t242 49q107 63 107 182q0 50 -25.5 84t-75.5 61q-30 15 -73.5 30t-74.5 23.5t-89.5 23t-90 23t-77 25t-77.5 33.5q-117 65 -117 177q0 61 26.5 110.5t71 82t101 51
t119.5 21.5v58h30v-57z" />
    <glyph glyph-name="percent" unicode="%" horiz-adv-x="712" 
d="M247 776h-8q-32 -3 -54 -36q-24 -35 -22.5 -83.5t26.5 -81.5q24 -30 56 -30h2l3 1q32 4 54 39q22 36 20 85q-3 48 -29 79q-21 25 -48 27zM248 806q40 -2 70 -38q33 -39 36 -97t-25 -102q-26 -43 -69 -52l1 -1l-11 -1l-11 -1v1q-43 3 -73 42q-32 40 -33.5 98t27.5 102
q30 45 77 49h11zM472 59h-8q-31 -3 -53 -36q-24 -35 -22.5 -83.5t26.5 -81.5q24 -31 55 -30h3l3 1q32 4 53 38q23 37 20 86q-3 48 -29 79q-21 25 -48 27zM474 89q40 -2 69 -38q33 -39 36 -97q4 -58 -24 -102q-27 -43 -69 -52v-2h-11l-10 -1v1q-44 2 -74 42q-31 40 -33 98
t27 102q31 45 77 49h12zM627 800h35l-577 -1000h-35z" />
    <glyph glyph-name="ampersand" unicode="&#x26;" horiz-adv-x="881" 
d="M653 799v-31h-363l439 -786q46 67 59 146.5t-11 158.5l-4 15l29 8l4 -14q27 -90 10.5 -180t-71.5 -163l86 -153h-35l-71 128q-26 -28 -56 -52q-98 -73 -219 -77.5t-223 61t-148 177.5t-19 230q25 111 106 191q86 84 204 105l-132 236h415zM386 535q-110 -16 -191.5 -91
t-105.5 -183q-25 -109 17.5 -212.5t136.5 -163.5t206 -56t201 72q33 24 59 55z" />
    <glyph glyph-name="quotesingle" unicode="'" horiz-adv-x="136" 
d="M56 836h30l-20 -72h-16z" />
    <glyph glyph-name="parenleft" unicode="(" horiz-adv-x="215" 
d="M128 800h32q-80 -226 -80 -500q0 -285 85 -515h-32q-83 233 -83 515q0 271 78 500z" />
    <glyph glyph-name="parenright" unicode=")" horiz-adv-x="215" 
d="M87 800h-32q80 -226 80 -500q0 -285 -85 -515h32q83 233 83 515q0 271 -78 500z" />
    <glyph glyph-name="asterisk" unicode="*" horiz-adv-x="382" 
d="M313 781l19 -23l-117 -98l117 -98l-19 -24l-107 90v-62v-62h-30v62v62l-107 -90l-19 24l117 98l-117 98l19 23l107 -89v62v62h30v-62v-62z" />
    <glyph glyph-name="plus" unicode="+" horiz-adv-x="563" 
d="M267 532h30v-217h217v-30h-217v-217h-30v217h-217v30h217v217z" />
    <glyph glyph-name="comma" unicode="," horiz-adv-x="136" 
d="M56 -175h30l-20 -72h-16z" />
    <glyph glyph-name="hyphen" unicode="-" horiz-adv-x="563" 
d="M50 315h464v-30h-464v30z" />
    <glyph glyph-name="period" unicode="." horiz-adv-x="130" 
d="M50 -166h30v-30h-30v30z" />
    <glyph glyph-name="slash" unicode="/" horiz-adv-x="399" 
d="M318 800h31l-268 -1000h-31z" />
    <glyph glyph-name="zero" unicode="0" horiz-adv-x="840" 
d="M422 800q67 0 130 -32.5t114 -92.5q54 -65 86 -152t37.5 -184t-16.5 -190t-69 -167q-46 -76 -110.5 -122t-137.5 -55l-14 -2h-1v0h-14q-73 -2 -141.5 34t-121.5 103q-52 68 -81.5 156.5t-32 186t22 189t72.5 163.5q49 73 115 116t139 48q9 1 18 1h5zM421 770h-3
q-9 0 -17 -1q-66 -5 -126 -44t-105 -107t-68.5 -155t-21 -179.5t30.5 -177t77 -147.5t110.5 -95.5t127.5 -30.5h13l13 2q65 8 124 50t103 113q43 70 64 158.5t16 180.5t-35.5 175t-81.5 143q-95 114 -221 115z" />
    <glyph glyph-name="one" unicode="1" horiz-adv-x="130" 
d="M50 800h30v-1000h-30v1000z" />
    <glyph glyph-name="two" unicode="2" horiz-adv-x="638" 
d="M329 801q101 1 171 -62q78 -71 78 -190q0 -113 -81 -219q-50 -65 -173 -170q-46 -40 -64.5 -56t-51 -47t-53.5 -57q-71 -85 -75 -170h509v-30h-539v30q3 96 81 190q23 27 56.5 59.5t51 47.5t65.5 56q121 102 169 165q75 98 75 201q0 106 -68 167q-62 55 -151 54.5
t-151 -57.5q-68 -62 -68 -168h-30q0 119 78 191q70 64 171 65z" />
    <glyph glyph-name="three" unicode="3" horiz-adv-x="649" 
d="M317 801h5q28 -1 57 -8q91 -23 144 -101t40 -171q-9 -68 -51.5 -121t-105.5 -76q72 -26 126.5 -83t64.5 -128q14 -99 -51 -191t-163 -117q-30 -8 -60 -8q-82 -1 -160 54.5t-108 134.5l-5 14l28 10l6 -14q31 -84 119 -133.5t173 -28.5q87 22 145 104.5t46 170.5
q-11 81 -81 138t-155 61q-10 -1 -19 0h-7h-8v0v15v15v0h8h7q9 1 19 0q77 4 134.5 56.5t68.5 130.5q11 82 -35.5 150.5t-127 88.5t-154 -18.5t-102.5 -116.5l-5 -14l-29 11l6 14q27 73 90.5 116.5t139.5 44.5z" />
    <glyph glyph-name="four" unicode="4" horiz-adv-x="657" 
d="M331 800h33l-268 -605h481v605h30v-1000h-30v365h-449h-45h-33z" />
    <glyph glyph-name="five" unicode="5" horiz-adv-x="723" 
d="M663 800v-30h-441l-83 -331q105 60 224 45t204 -99q19 -18 34 -39q57 -74 69.5 -164t-19.5 -175.5t-103 -144.5q-108 -91 -249 -83t-239 111l-10 11l22 20l10 -11q90 -94 219 -101.5t228 76t113 212t-64.5 231.5t-206.5 124.5t-235 -50.5l-7 -5l-8 -33l-29 7l106 429h465
z" />
    <glyph glyph-name="six" unicode="6" horiz-adv-x="791" 
d="M496 800h57q-174 -106 -294 -239q-77 -86 -122 -174q15 17 31 31q51 46 115.5 68.5t131.5 18.5q131 -8 225 -104q50 -51 77 -119.5t24 -144.5q-3 -94 -50.5 -173.5t-127 -124t-172.5 -43.5q-67 1 -129.5 28.5t-110.5 76.5t-74 113.5t-27 133.5v14q0 212 187 419
q107 119 259 219zM398 475q-120 1 -210 -80q-47 -41 -74.5 -98t-32.5 -120l-1 -9v-6v-13q1 -64 24.5 -122.5t67.5 -104t101 -70t119 -25.5q129 -2 222 88.5t97 222.5q3 69 -21.5 132t-70.5 110q-85 87 -205 94q-8 1 -16 1z" />
    <glyph glyph-name="seven" unicode="7" horiz-adv-x="727" 
d="M59 801l618 -2l-592 -999h-35l574 968l-565 3v30z" />
    <glyph glyph-name="eight" unicode="8" horiz-adv-x="689" 
d="M347 801q111 -1 188 -73q4 -5 9 -9q71 -74 65.5 -173t-83.5 -166q-38 -32 -85 -49q66 -21 114 -67q6 -5 11 -10q79 -84 73.5 -195t-94 -186.5t-209 -72t-203.5 83.5l-7 7v-1l-2 3l-2 2l-6 7q-76 86 -65 197t103 183q44 34 97 50q-53 20 -93 58l-4 4l-3 4l-3 3l-4 5
q-68 76 -58 175t91 163q74 57 170 57zM347 772q-84 0 -149 -51q-72 -56 -81 -142.5t51 -154.5l6 -7l7 -7q59 -56 143 -64q22 1 44 -1q78 6 136 56q69 59 74 146t-58 152q-4 5 -8 8q-68 64 -165 65zM324 317q-85 -6 -150 -57q-82 -65 -91.5 -164t57.5 -176l8 -8l7 -8
q75 -71 182.5 -74.5t186.5 64t84.5 167t-66.5 174.5l-9 9q-68 64 -165 72q-22 -1 -44 1z" />
    <glyph glyph-name="nine" unicode="9" horiz-adv-x="791" 
d="M396 802h4q68 -1 130.5 -28t110 -76.5t74 -113.5t26.5 -134v-13q0 -213 -187 -420q-106 -118 -256 -217h-57q172 106 291 237q78 86 122 174q-15 -16 -31 -31q-51 -46 -115 -68t-132 -18q-131 8 -224 103q-50 52 -77 120.5t-25 143.5q3 94 50 172.5t125.5 124t170.5 44.5
zM395 772q-127 0 -219 -90.5t-96 -221.5q-2 -69 22.5 -131.5t70.5 -109.5q85 -87 205 -95q62 -4 120.5 16.5t105 62.5t74.5 98.5t32 119.5l1 10v6v13q0 63 -24 122t-68 104t-101 70t-119 26h-4z" />
    <glyph glyph-name="colon" unicode=":" horiz-adv-x="130" 
d="M50 -226h30v-30h-30v30zM50 88h30v-30h-30v30z" />
    <glyph glyph-name="semicolon" unicode=";" horiz-adv-x="136" 
d="M56 88h30v-30h-30v30zM56 -226h30l-20 -72h-16z" />
    <glyph glyph-name="less" unicode="&#x3c;" horiz-adv-x="575" 
d="M497 615l-447 -315l447 -315l29 16l-424 299l424 299z" />
    <glyph glyph-name="equal" unicode="=" horiz-adv-x="563" 
d="M50 261h464v-31h-464v31zM50 370h464v-31h-464v31z" />
    <glyph glyph-name="greater" unicode="&#x3e;" horiz-adv-x="575" 
d="M79 615l447 -315l-447 -315l-29 16l423 299l-423 299z" />
    <glyph glyph-name="question" unicode="?" horiz-adv-x="598" 
d="M85 -182h30v-30h-30v30zM299 799.5q100 0.5 170 -49.5q79 -57 79 -154q0 -92 -81 -176q-30 -32 -74.5 -68.5t-80 -62.5t-74 -63t-64 -75t-42.5 -93t-17 -121v-84h-30v84q0 69 17 127t43.5 97.5t66 78.5t75.5 66t82 64.5t76 70.5q73 76 73 155q0 82 -67 130
q-61 44 -151.5 43t-152.5 -46q-67 -48 -67 -130h-30q0 97 79 155q70 51 170 51.5z" />
    <glyph glyph-name="at" unicode="@" horiz-adv-x="1059" 
d="M529.5 801q95.5 0 184 -38t156 -108.5t104 -162.5t36.5 -191.5t-36.5 -191.5t-104 -162.5t-156 -108.5t-184 -38t-183.5 38t-155.5 108.5t-104 162.5t-36.5 191.5t36.5 191.5t104 162.5t155.5 108.5t183.5 38zM530 781q-91 0 -175.5 -36.5t-149.5 -104t-100 -156
t-35 -184t35 -184t100 -156t149.5 -104t175.5 -36.5t175.5 36.5t149.5 104t100 156t35 184t-35 184t-100 156t-149.5 104t-175.5 36.5zM535 741l320 -731l-27 -12l-57 130q-10 0 -20.5 1.5t-23 5t-20.5 5.5t-23.5 8t-22 8t-24.5 10t-22.5 9.5t-25 11t-23.5 10.5
q-139 62 -206 67l-117 -266l-27 12zM535 666l-163 -373q32 -4 70.5 -15.5t65 -22.5t70.5 -30q129 -57 179 -65z" />
    <glyph glyph-name="A" unicode="A" horiz-adv-x="984" 
d="M492 808l442 -1008h-33l-93 213q-48 1 -88.5 8t-78.5 22.5t-59.5 26.5t-59.5 33q-48 28 -76.5 41.5t-81 28t-111.5 15.5l-170 -388h-33zM492 732l-226 -514q58 -3 112 -18t83 -29.5t76 -41.5q37 -21 56 -31t53.5 -24.5t70 -21.5t77.5 -8z" />
    <glyph glyph-name="B" unicode="B" horiz-adv-x="795" 
d="M50 800h405q107 0 171 -78q57 -70 58 -169q1 -100 -55 -170q-33 -40 -81 -60q93 -26 145 -97.5t53 -157.5q0 -51 -19 -98.5t-54 -85.5t-91.5 -61t-126.5 -23h-405v0v1000v0zM80 770v-435h375q96 0 150 67q50 61 49 150t-52 151q-55 67 -147 67h-375zM80 305v-475h375
q64 0 115.5 20t82.5 54t47 76t15.5 87.5t-16.5 87.5t-47.5 75.5t-82 54t-114.5 20.5h-375z" />
    <glyph glyph-name="C" unicode="C" horiz-adv-x="959" 
d="M561 823q175 -4 310 -120l11 -9l-19 -23l-12 10q-70 60 -157.5 89t-178.5 21.5t-172.5 -50t-142.5 -113.5t-92 -161t-27.5 -185.5t41 -183t103.5 -153.5t150.5 -102t176 -36t176 35.5t150.5 101.5l11 11l21 -21l-11 -11q-70 -70 -160 -108t-187.5 -38t-188 38
t-160.5 108.5t-109.5 163t-43 193.5t29 196.5t97.5 171t152 121t184 52.5q24 2 48 2z" />
    <glyph glyph-name="D" unicode="D" horiz-adv-x="828" 
d="M50 800h305q103 0 184 -42t136 -116q52 -69 78 -158t25 -184t-28 -184t-80 -159q-56 -73 -137 -115t-183 -42h-300v0v1000v0zM80 770v-940h270q186 0 296 146q49 64 75 149t27 175.5t-24 175t-73 148.5q-109 146 -296 146h-275z" />
    <glyph glyph-name="E" unicode="E" horiz-adv-x="730" 
d="M50 800h30h565v-30h-565v-455h520v-30h-520v-455h600v-30h-630v0v485v30v455v30v0z" />
    <glyph glyph-name="F" unicode="F" horiz-adv-x="711" 
d="M50 800h30h581v-30h-581v-455h460v-30h-460v-485h-30v485v30v455v30v0z" />
    <glyph glyph-name="G" unicode="G" horiz-adv-x="937" 
d="M532 800h6q169 -3 299 -117l12 -10l-20 -23l-11 10q-68 60 -152.5 88t-172.5 20.5t-167 -49.5t-136.5 -112t-86 -158t-22.5 -180.5t45 -175.5t105 -144.5t149.5 -92t172.5 -25.5q87 5 166 43t138 105v306h-389v30h420v-10v-287v-39v-12l-5 -4q-63 -73 -148.5 -115
t-180 -47t-184 27.5t-160 98t-112 154t-47.5 186.5t24 191.5t91.5 168t145.5 119t179 52.5q20 2 41 2z" />
    <glyph glyph-name="H" unicode="H" horiz-adv-x="780" 
d="M50 800h30v-569l3 3q27 23 78 44q61 24 226 62q160 38 221 63q46 19 69 39q22 19 23 40v318h30v-315v-4v-681h-30v622l-3 -3q-26 -24 -78 -44q-63 -26 -225 -64q-163 -38 -222 -62q-46 -18 -69 -38q-23 -19 -23 -41v-370h-30v1000z" />
    <glyph glyph-name="I" unicode="I" horiz-adv-x="130" 
d="M50 800h30v-1000h-30v1000z" />
    <glyph glyph-name="J" unicode="J" horiz-adv-x="690" 
d="M610 800h30v-748q0 -134 -93 -211q-82 -69 -202 -67q-119 2 -202 72q-93 78 -93 205h30q0 -113 82 -182q75 -63 183 -65q109 -1 183 60q82 68 82 188v748z" />
    <glyph glyph-name="K" unicode="K" horiz-adv-x="817" 
d="M50 800h30v-557l535 557h42l-405 -422l516 -578h-41l-496 556l-151 -157v-399h-30v1000z" />
    <glyph glyph-name="L" unicode="L" horiz-adv-x="755" 
d="M50 800h30v-970h625v-30h-655v0v1000z" />
    <glyph glyph-name="M" unicode="M" horiz-adv-x="1020" 
d="M50 800h32l427 -928l429 928h32v-984v-16h-30v16v916l-431 -932l-429 932v-916v-16h-30v16v984z" />
    <glyph glyph-name="N" unicode="N" horiz-adv-x="905" 
d="M50 800h30q1 -120 118 -261q78 -94 264 -253q7 -6 40.5 -34.5t43.5 -37t38 -33t41.5 -37t35 -32.5t38 -36.5t31.5 -33.5q65 -70 95 -129v873v14h30v-14v-986h-30q0 95 -117 222q-13 14 -28.5 29.5l-28.5 28.5t-33.5 31t-32 28.5t-35.5 31.5t-34 29.5t-37.5 32t-35.5 30.5
q-91 77 -155 137t-113 120q-64 76 -95 146v-851v-15h-30v15v985z" />
    <glyph glyph-name="O" unicode="O" horiz-adv-x="1103" 
d="M552 823q100 0 192 -40t162.5 -113.5t108.5 -169.5t38 -200t-38 -200t-108.5 -169.5t-162.5 -113.5t-192 -40t-192.5 40t-163 113.5t-108.5 169.5t-38 200t38 200t108.5 169.5t163 113.5t192.5 40zM551.5 793q-93.5 0 -180 -37.5t-153 -107t-102.5 -160t-36 -188.5
t36 -188.5t102.5 -160t153 -107t180 -37.5t180 37.5t153 107t102.5 160t36 188.5t-36 188.5t-102.5 160t-153 107t-180 37.5z" />
    <glyph glyph-name="P" unicode="P" horiz-adv-x="684" 
d="M50 800h30h226q158 0 245 -77q84 -73 83 -196q-1 -126 -84 -198q-86 -75 -244 -75h-226v-454h-30v1000zM80 770v-485h226q146 0 224 67q73 63 74 175q0 109 -73 173q-78 70 -225 70h-226z" />
    <glyph glyph-name="Q" unicode="Q" horiz-adv-x="1172" 
d="M529.5 801q95.5 0 183.5 -38.5t155.5 -108.5t104 -162t36.5 -191t-36.5 -191t-103.5 -162q-60 -63 -137 -100q57 -31 108 -46t122.5 -14t150.5 27l9 -28q-66 -22 -127 -28t-114 4.5t-95 26.5t-89 43q-81 -32 -168 -32q-95 0 -183 38t-155.5 108.5t-104 162.5t-36.5 191
t36.5 191t104 162t155.5 108.5t183.5 38.5zM529.5 770q-89.5 0 -172 -35.5t-145.5 -101.5t-97.5 -152.5t-34.5 -179.5q0 -162 96 -290q61 14 117 15q42 1 84.5 -7.5t72 -18t71.5 -31t61.5 -33t62.5 -38.5q34 -20 54 -32q84 36 148 103q63 66 97.5 152t34.5 179.5t-34.5 180
t-97.5 152.5t-145.5 101.5t-172 35.5zM302 -4q-50 1 -105 -11q8 -9 15 -16q63 -66 145.5 -102t171.5 -36q69 0 134 22q-14 8 -33 20q-46 28 -62 37.5t-57 31t-67 30t-65 16.5t-77 8z" />
    <glyph glyph-name="R" unicode="R" horiz-adv-x="855" 
d="M50 800h28h2h226q158 0 245 -77q84 -73 83 -196q-1 -126 -84 -198q-54 -47 -139 -65q44 -18 79 -55q46 -48 100 -160q1 -3 9 -19t9.5 -19.5t8.5 -17.5l9.5 -19t9 -16.5t10 -17.5t9.5 -15t11 -16t10 -13q53 -66 129 -66v-30q-90 0 -152 76q-8 10 -15 19.5t-14.5 23t-12 21
t-13.5 25t-11.5 22t-12.5 26t-11 23.5q-53 108 -95 152q-64 66 -158 66h-1.5h-2.5h-226v-454h-30v1000zM80 770v-485h226q146 0 224 67q73 63 74 175q0 109 -73 173q-78 70 -225 70h-226z" />
    <glyph glyph-name="S" unicode="S" horiz-adv-x="858" 
d="M418 826h17q143 -3 242 -79q112 -86 112 -230h-31q0 129 -100 206q-90 70 -224 73q-132 3 -224 -61q-100 -68 -100 -187q0 -54 26 -91t76 -66q64 -38 236 -82q61 -16 90.5 -24.5t75.5 -25t78 -34.5q117 -64 117 -178q0 -71 -32.5 -126t-88.5 -90q-107 -66 -260 -56
q-152 10 -258 88q-120 89 -120 226h30q0 -122 108 -201q99 -73 242.5 -82.5t241.5 51.5q106 66 106 190q0 52 -25.5 88t-75.5 64q-29 16 -72.5 32t-74.5 24.5t-89.5 24t-90 24.5t-77 25.5t-76.5 35.5q-117 67 -117 183q0 68 30 122t82 90q94 64 226 66z" />
    <glyph glyph-name="T" unicode="T" horiz-adv-x="1025" 
d="M50 800h925v-30h-447v-970h-31v970h-447v30z" />
    <glyph glyph-name="U" unicode="U" horiz-adv-x="850" 
d="M50 800h30v-670q0 -156 107 -247q97 -83 238 -83t238 83q107 91 107 247v670h30v-670q0 -170 -118 -270q-105 -90 -257 -90t-257 90q-118 100 -118 270v670z" />
    <glyph glyph-name="V" unicode="V" horiz-adv-x="1049" 
d="M50 800h33l442 -935l441 935h33l-474 -1006z" />
    <glyph glyph-name="W" unicode="W" horiz-adv-x="1529" 
d="M50 800h33l442 -935l223 473l-218 462h33l202 -426l201 426h33l-218 -462l224 -473l441 935h33l-474 -1006l-240 509l-240 -509z" />
    <glyph glyph-name="X" unicode="X" horiz-adv-x="890" 
d="M50 800h38l357 -477l358 477h37l-376 -503l373 -497h-38l-354 472l-353 -472h-38l372 497z" />
    <glyph glyph-name="Y" unicode="Y" horiz-adv-x="972" 
d="M50 800h39l397 -486l398 486h39l-421 -516v-484h-31v484z" />
    <glyph glyph-name="Z" unicode="Z" horiz-adv-x="963" 
d="M142 800h772l-800 -970l798 -5v-30l-862 5l800 970h-708v30z" />
    <glyph glyph-name="bracketleft" unicode="[" horiz-adv-x="215" 
d="M50 800h30h85v-30h-85v-940h85v-30h-85h-30v1000z" />
    <glyph glyph-name="backslash" unicode="\" horiz-adv-x="399" 
d="M81 800h-31l268 -1000h31z" />
    <glyph glyph-name="bracketright" unicode="]" horiz-adv-x="215" 
d="M165 800h-30h-85v-30h85v-940h-85v-30h85h30v1000z" />
    <glyph glyph-name="asciicircum" unicode="^" 
 />
    <glyph glyph-name="underscore" unicode="_" horiz-adv-x="563" 
d="M50 -166h464v-30h-464v30z" />
    <glyph glyph-name="grave" unicode="`" 
 />
    <glyph glyph-name="a" unicode="a" horiz-adv-x="984" 
d="M492 808l442 -1008h-33l-93 213q-48 1 -88.5 8t-78.5 22.5t-59.5 26.5t-59.5 33q-48 28 -76.5 41.5t-81 28t-111.5 15.5l-170 -388h-33zM492 732l-226 -514q58 -3 112 -18t83 -29.5t76 -41.5q37 -21 56 -31t53.5 -24.5t70 -21.5t77.5 -8z" />
    <glyph glyph-name="b" unicode="b" horiz-adv-x="795" 
d="M50 800h405q107 0 171 -78q57 -70 58 -169q1 -100 -55 -170q-33 -40 -81 -60q93 -26 145 -97.5t53 -157.5q0 -51 -19 -98.5t-54 -85.5t-91.5 -61t-126.5 -23h-405v0v1000v0zM80 770v-435h375q96 0 150 67q50 61 49 150t-52 151q-55 67 -147 67h-375zM80 305v-475h375
q64 0 115.5 20t82.5 54t47 76t15.5 87.5t-16.5 87.5t-47.5 75.5t-82 54t-114.5 20.5h-375z" />
    <glyph glyph-name="c" unicode="c" horiz-adv-x="959" 
d="M561 823q175 -4 310 -120l11 -9l-19 -23l-12 10q-70 60 -157.5 89t-178.5 21.5t-172.5 -50t-142.5 -113.5t-92 -161t-27.5 -185.5t41 -183t103.5 -153.5t150.5 -102t176 -36t176 35.5t150.5 101.5l11 11l21 -21l-11 -11q-70 -70 -160 -108t-187.5 -38t-188 38
t-160.5 108.5t-109.5 163t-43 193.5t29 196.5t97.5 171t152 121t184 52.5q24 2 48 2z" />
    <glyph glyph-name="d" unicode="d" horiz-adv-x="828" 
d="M50 800h305q103 0 184 -42t136 -116q52 -69 78 -158t25 -184t-28 -184t-80 -159q-56 -73 -137 -115t-183 -42h-300v0v1000v0zM80 770v-940h270q186 0 296 146q49 64 75 149t27 175.5t-24 175t-73 148.5q-109 146 -296 146h-275z" />
    <glyph glyph-name="e" unicode="e" horiz-adv-x="730" 
d="M645 800v-30h-565v-455h520v-30h-520v-455h600v-30h-630v0v485v30v455v30h1h1h1h1h1h1h1h1h1h1h1h1h1h1h1h1h1h1h1h1h1h1h1h1h1h1h1h1h1h1h1h1h1h1h1h1h1h1h1h1h1h1h1h1h1h1h1h1h1h1h1h1h1h1h1h1h1h1h1h1h1h1h1h1h1h1h1h1h1h1h1h1h1h1h1h1h1h1h1h1h1h1h1h1h1h1h1h1h1h1h1
h1h1h1h1h1h1h1h1h1h1h1h1h1h1h1h1h1h1h1h1h1h1h1h1h1h1h1h1h1h1h1h1h1h1h1h1h1h1h1h1h1h1h1h1h1h1h1h1h1h1h1h1h1h1h1h1h1h1h1h1h1h1h1h1h1h1h1h1h1h1h1h1h1h1h1h1h1h1h1h1h1h1h1h1h1h1h1h1h1h1h1h1h1h1h1h1h1h1h1h1h1h1h1h1h1h1h1h1h1h1h1h1h1h1h1h1h1h1h1h1h1h1h1h1h1h1h1
h1h1h1h1h1h1h1h1h1h1h1h1h1h1h1h1h1h1h1h1h1h1h1h1h1h1h1h1h1h1h1h1h1h1h1h1h1h1h1h1h1h1h1h1h1h1h1h1h1h1h1h1h1h1h1h1h1h1h1h1h1h1h1h1h1h1h1h1h1h1h1h1h1h1h1h1h1h1h1h1h1h1h1h1h1h1h1h1h1h1h1h1h2h1h1h1h1h1h1h1h1h1h1h1h1h1h1h1h1h1h1h1h1h1h1h1h1h1h1h1h1h1h1h1h1h1h1
h1h1h1h1h1h1h1h1h1h1h1h1h1h1h1h1h1h1h1h1h1h1h1h1h1h1h1h1h1h1h1h1h1h1h1h1h1h1h1h1h1h1h1h1h1h1h1h1h1h1h1h1h1h1h1h1h1h1h1h1h1h1h1h1h1h1h1h1h1h1h1h1h1h1h1h1h1h1h1h1h1h1h1h1h1h1h1h1h1h1h1h1h1h1h1h1h1h1h1h1h1h1h1h1h1h1h1h1h1h1h1h1h1h1h1h1h1h1h1h1h1h1h1h1h1h1h1
h1h1h1h1h1h1h1h1h1h1h1h1h1h1h1h1h1h1h1h1h1h1h1h1h1h1h1h1h1h1h1h1h1h1h1h1h1h1h1h1h1h1h1h1h1h1h1h1h1h1h1h1h1h1h1h1h1h1h1h1h1h1h1h1h1h1h1h1h1h1h1h1h1h1h1h1h1h1h1h1h1h1h1h1h1h1h1h1h1h1h1h1h1h1h1h1h1h1h1h1h1h1h1h1h1h1h1h1h1h1h1h1h1h1h1h1h1h1h1h1h1h1z" />
    <glyph glyph-name="f" unicode="f" horiz-adv-x="711" 
d="M50 800h30h581v-30h-581v-455h460v-30h-460v-485h-30v485v30v455v30v0z" />
    <glyph glyph-name="g" unicode="g" horiz-adv-x="937" 
d="M532 800h6q169 -3 299 -117l12 -10l-20 -23l-11 10q-68 60 -152.5 88t-172.5 20.5t-167 -49.5t-136.5 -112t-86 -158t-22.5 -180q6 -93 44 -176t104 -144q67 -62 151.5 -94.5t172.5 -27.5q86 4 165 44t139 108v306h-389v30h420v-10v-287v-39v-12l-5 -4
q-64 -74 -149.5 -117.5t-179 -48.5t-184 29t-161.5 100q-70 66 -111 154t-47 187q-6 98 24 191.5t91.5 168t145.5 119t179 52.5q20 2 41 2z" />
    <glyph glyph-name="h" unicode="h" horiz-adv-x="780" 
d="M50 800h30v-569l3 3q27 23 78 44q61 24 226 62q160 38 221 63q46 19 69 39q22 19 23 40v318h30v-315v-4v-681h-30v622l-3 -3q-26 -24 -78 -44q-63 -26 -225 -64q-163 -38 -222 -62q-46 -18 -69 -38q-23 -19 -23 -41v-370h-30v1000z" />
    <glyph glyph-name="i" unicode="i" horiz-adv-x="130" 
d="M50 800h30v-996h-30v996z" />
    <glyph glyph-name="j" unicode="j" horiz-adv-x="690" 
d="M610 800h30v-748q0 -134 -93 -211q-82 -69 -202 -67q-119 2 -202 72q-93 78 -93 205h30q0 -113 82 -182q75 -63 183 -65q109 -1 183 60q82 68 82 188v748z" />
    <glyph glyph-name="k" unicode="k" horiz-adv-x="817" 
d="M50 800h30v-557l535 557h42l-405 -422l516 -578h-41l-496 556l-151 -157v-399h-30v1000z" />
    <glyph glyph-name="l" unicode="l" horiz-adv-x="755" 
d="M50 800h30v-970h625v-30h-655v0v1000z" />
    <glyph glyph-name="m" unicode="m" horiz-adv-x="1020" 
d="M50 800h32l427 -928l429 928h32v-984v-16h-30v16v916l-431 -932l-429 932v-916v-16h-30v16v984z" />
    <glyph glyph-name="n" unicode="n" horiz-adv-x="905" 
d="M50 800h30q1 -120 118 -261q78 -94 264 -253q7 -6 40.5 -34.5t43.5 -37t38 -33t41.5 -37t35 -32.5t38 -36.5t31.5 -33.5q65 -70 95 -129v873v14h30v-14v-986h-30q0 95 -117 222q-13 14 -28.5 29.5l-28.5 28.5t-33.5 31t-32 28.5t-35.5 31.5t-34 29.5t-37.5 32t-35.5 30.5
q-91 77 -155 137t-113 120q-64 76 -95 146v-851v-15h-30v15v985z" />
    <glyph glyph-name="o" unicode="o" horiz-adv-x="1103" 
d="M552 823q100 0 192 -40t162.5 -113.5t108.5 -169.5t38 -200t-38 -200t-108.5 -169.5t-162.5 -113.5t-192 -40t-192.5 40t-163 113.5t-108.5 169.5t-38 200t38 200t108.5 169.5t163 113.5t192.5 40zM551.5 793q-93.5 0 -180 -37.5t-153 -107t-102.5 -160t-36 -188.5
t36 -188.5t102.5 -160t153 -107t180 -37.5t180 37.5t153 107t102.5 160t36 188.5t-36 188.5t-102.5 160t-153 107t-180 37.5z" />
    <glyph glyph-name="p" unicode="p" horiz-adv-x="684" 
d="M50 800h30h226q158 0 245 -77q84 -73 83 -196q-1 -126 -84 -198q-86 -75 -244 -75h-226v-454h-30v1000zM80 770v-485h226q146 0 224 67q73 63 74 175q0 109 -73 173q-78 70 -225 70h-226z" />
    <glyph glyph-name="q" unicode="q" horiz-adv-x="1172" 
d="M529.5 801q95.5 0 183.5 -38.5t155.5 -108.5t104 -162t36.5 -191t-36.5 -191t-103.5 -162q-60 -63 -137 -100q57 -31 108 -46t122.5 -14t150.5 27l9 -28q-66 -22 -127 -28t-114 4.5t-95 26.5t-89 43q-81 -32 -168 -32q-95 0 -183 38t-155.5 108.5t-104 162.5t-36.5 191
t36.5 191t104 162t155.5 108.5t183.5 38.5zM529.5 770q-89.5 0 -172 -35.5t-145.5 -101.5t-97.5 -152.5t-34.5 -179.5q0 -162 96 -290q61 14 117 15q42 1 84.5 -7.5t72 -18t71.5 -31t61.5 -33t62.5 -38.5q34 -20 54 -32q84 36 148 103q63 66 97.5 152t34.5 179.5t-34.5 180
t-97.5 152.5t-145.5 101.5t-172 35.5zM302 -4q-50 1 -105 -11q8 -9 15 -16q63 -66 145.5 -102t171.5 -36q69 0 134 22q-14 8 -33 20q-46 28 -62 37.5t-57 31t-67 30t-65 16.5t-77 8z" />
    <glyph glyph-name="r" unicode="r" horiz-adv-x="855" 
d="M50 800h28h2h226q158 0 245 -77q84 -73 83 -196q-1 -126 -84 -198q-54 -47 -139 -65q44 -18 79 -55q46 -48 100 -160q1 -3 9 -19t9.5 -19.5t8.5 -17.5l9.5 -19t9 -16.5t10 -17.5t9.5 -15t11 -16t10 -13q53 -66 129 -66v-30q-90 0 -152 76q-8 10 -15 19.5t-14.5 23t-12 21
t-13.5 25t-11.5 22t-12.5 26t-11 23.5q-53 108 -95 152q-64 66 -158 66h-1.5h-2.5h-226v-454h-30v1000zM80 770v-485h226q146 0 224 67q73 63 74 175q0 109 -73 173q-78 70 -225 70h-226z" />
    <glyph glyph-name="s" unicode="s" horiz-adv-x="858" 
d="M418 826h17q143 -3 242 -79q112 -86 112 -230h-31q0 129 -100 206q-90 70 -224 73q-132 3 -224 -61q-100 -68 -100 -187q0 -54 26 -91t76 -66q64 -38 236 -82q61 -16 90.5 -24.5t75.5 -25t78 -34.5q117 -64 117 -178q0 -71 -32.5 -126t-88.5 -90q-107 -66 -260 -56
q-152 10 -258 88q-120 89 -120 226h30q0 -122 108 -201q99 -73 242.5 -82.5t241.5 51.5q106 66 106 190q0 52 -25.5 88t-75.5 64q-29 16 -72.5 32t-74.5 24.5t-89.5 24t-90 24.5t-77 25.5t-76.5 35.5q-117 67 -117 183q0 68 30 122t82 90q94 64 226 66z" />
    <glyph glyph-name="t" unicode="t" horiz-adv-x="1025" 
d="M50 800h925v-30h-447v-970h-31v970h-447v30z" />
    <glyph glyph-name="u" unicode="u" horiz-adv-x="850" 
d="M50 800h30v-670q0 -156 107 -247q97 -83 238 -83t238 83q107 91 107 247v670h30v-670q0 -170 -118 -270q-105 -90 -257 -90t-257 90q-118 100 -118 270v670z" />
    <glyph glyph-name="v" unicode="v" horiz-adv-x="1049" 
d="M50 800h33l442 -935l441 935h33l-474 -1006z" />
    <glyph glyph-name="w" unicode="w" horiz-adv-x="1529" 
d="M50 800h33l442 -935l223 473l-218 462h33l202 -426l201 426h33l-218 -462l224 -473l441 935h33l-474 -1006l-240 509l-240 -509z" />
    <glyph glyph-name="x" unicode="x" horiz-adv-x="890" 
d="M50 800h38l357 -477l358 477h37l-376 -503l373 -497h-38l-354 472l-353 -472h-38l372 497z" />
    <glyph glyph-name="y" unicode="y" horiz-adv-x="972" 
d="M50 800h39l397 -486l398 486h39l-421 -516v-484h-31v484z" />
    <glyph glyph-name="z" unicode="z" horiz-adv-x="963" 
d="M142 800h772l-800 -970l798 -5v-30l-862 5l800 970h-708v30z" />
    <glyph glyph-name="braceleft" unicode="{" horiz-adv-x="250" 
d="M200 815v-30q-38 0 -48 -20q-7 -15 -7 -59v-281q0 -85 -46 -121q-1 -1 -5 -4q4 -3 5 -4q46 -36 46 -121v-281q0 -47 7 -60q5 -9 14 -13q12 -6 34 -6v-30q-29 0 -47 8q-18 9 -28 27q-10 20 -10 74v281q0 71 -34 97q-7 6 -15 9t-12 4h-4v30q15 0 31 13q34 26 34 97v281
q0 52 10 72q19 37 75 37z" />
    <glyph glyph-name="bar" unicode="|" horiz-adv-x="124" 
d="M50 836h24v-1036h-24v1036z" />
    <glyph glyph-name="braceright" unicode="}" horiz-adv-x="250" 
d="M50 815v-30q38 0 48 -20q7 -15 7 -59v-281q0 -85 46 -121q1 -1 5 -4q-4 -3 -5 -4q-46 -36 -46 -121v-281q0 -47 -7 -60q-5 -9 -14 -13q-12 -6 -34 -6v-30q29 0 47 8q18 9 28 27q10 20 10 74v281q0 71 34 97q7 6 15 9t12 4h4v30q-15 0 -31 13q-34 26 -34 97v281
q0 52 -10 72q-19 37 -75 37z" />
    <glyph glyph-name="asciitilde" unicode="~" horiz-adv-x="401" 
d="M332 1108l20 -28q-25 -34 -49.5 -47.5t-44 -9t-38.5 15.5t-37 22t-35.5 15t-37 -9t-39.5 -47l-21 22q25 37 48.5 53t43 14t38 -12t36.5 -21t36 -16t38.5 6t41.5 42z" />
    <glyph glyph-name="uni007F" 
 />
    <glyph glyph-name="uni0080" 
 />
    <glyph glyph-name="uni0081" 
 />
    <glyph glyph-name="uni0082" 
 />
    <glyph glyph-name="uni0083" 
 />
    <glyph glyph-name="uni0084" 
 />
    <glyph glyph-name="uni0085" unicode="&#x85;" 
 />
    <glyph glyph-name="uni0086" 
 />
    <glyph glyph-name="uni0087" 
 />
    <glyph glyph-name="uni0088" 
 />
    <glyph glyph-name="uni0089" 
 />
    <glyph glyph-name="uni008A" 
 />
    <glyph glyph-name="uni008B" 
 />
    <glyph glyph-name="uni008C" 
 />
    <glyph glyph-name="uni008D" 
 />
    <glyph glyph-name="uni008E" 
 />
    <glyph glyph-name="uni008F" 
 />
    <glyph glyph-name="uni0090" 
 />
    <glyph glyph-name="uni0091" 
 />
    <glyph glyph-name="uni0092" 
 />
    <glyph glyph-name="uni0093" 
 />
    <glyph glyph-name="uni0094" 
 />
    <glyph glyph-name="uni0095" 
 />
    <glyph glyph-name="uni0096" 
 />
    <glyph glyph-name="uni0097" 
 />
    <glyph glyph-name="uni0098" 
 />
    <glyph glyph-name="uni0099" 
 />
    <glyph glyph-name="uni009A" 
 />
    <glyph glyph-name="uni009B" 
 />
    <glyph glyph-name="uni009C" 
 />
    <glyph glyph-name="uni009D" 
 />
    <glyph glyph-name="uni009E" 
 />
    <glyph glyph-name="uni009F" 
 />
    <glyph glyph-name="uni00A0" unicode="&#xa0;" 
 />
    <glyph glyph-name="Aogonek" unicode="&#x104;" horiz-adv-x="984" 
d="M492 732l-226 -514q58 -3 112 -18t83 -29.5t76 -41.5q37 -21 56 -31t53.5 -24.5t70 -21.5t77.5 -8zM492 808l442 -1008q-32 0 -47 -15t-14.5 -37t16 -37.5t45.5 -15.5v-30q-41 0 -66 24.5t-26 57.5q0 24 13 44t37 31l-84 191q-48 1 -88.5 8t-78.5 22.5t-59.5 26.5
t-59.5 33q-48 28 -76.5 41.5t-81 28t-111.5 15.5l-170 -388h-33z" />
    <glyph glyph-name="aogonek" unicode="&#x105;" horiz-adv-x="984" 
d="M492 808l442 -1008h-33l-93 213q-48 1 -88.5 8t-78.5 22.5t-59.5 26.5t-59.5 33q-48 28 -76.5 41.5t-81 28t-111.5 15.5l-170 -388h-33zM492 732l-226 -514q58 -3 112 -18t83 -29.5t76 -41.5q37 -21 56 -31t53.5 -24.5t70 -21.5t77.5 -8z" />
    <glyph glyph-name="Lslash" unicode="&#x141;" horiz-adv-x="894" 
d="M50 266l402 232l15 -26l-402 -232zM190 800h30v-970h625v-30h-655v0v1000z" />
    <glyph glyph-name="Euro" unicode="&#x20ac;" horiz-adv-x="947" 
d="M549 800q84 0 164 -30t144 -87l12 -10l-20 -23l-11 10q-68 59 -151 87t-170 21.5t-165.5 -47t-136.5 -108.5q-95 -111 -112 -258h411v-30h-413q-1 -22 0 -44v-11h413v-30h-410q20 -166 136 -281q64 -63 145 -96.5t168.5 -32.5t168 36t143.5 99l10 11l22 -21l-11 -11
q-66 -68 -152.5 -105.5t-180 -38.5t-180.5 35t-154 103q-125 124 -146 302h-23v30h21q0 5 -1 10q0 22 1 45h-21v30h23q17 159 119 278q62 72 145.5 115.5t177.5 50.5q11 1 23 1h11z" />
    <glyph glyph-name="quotedblbase" unicode="&#x201e;" 
 />
    <glyph glyph-name="Scaron" unicode="&#x160;" horiz-adv-x="860" 
d="M436 876l108 105l-21 22l-87 -85l-87 85l-21 -22zM427 806q69 -1 133 -20t116 -54.5t83 -93t31 -128.5h-30q0 139 -125 214q-109 64 -252 51q-141 -13 -217 -93q-56 -60 -56 -142q0 -51 26 -87t76 -63q65 -36 237 -79q61 -15 90.5 -23t75.5 -24t78 -33q117 -62 117 -171
q0 -69 -32.5 -121.5t-88.5 -86.5q-107 -63 -260 -53q-152 9 -259 84q-120 85 -120 217h30q0 -116 108 -192q99 -70 243 -79t242 49q107 63 107 182q0 50 -25.5 84t-75.5 61q-30 15 -73.5 30t-74.5 23.5t-89.5 23t-90 23t-77 25t-77.5 33.5q-117 65 -117 177q0 63 28.5 114.5
t76.5 83.5t108 49.5t126 18.5h8z" />
    <glyph glyph-name="section" unicode="&#xa7;" horiz-adv-x="945" 
d="M512 872q69 0 133 -19t116 -54.5t83 -93.5t31 -129h-30q0 140 -125 214q-109 64 -252 51q-141 -12 -217 -93q-56 -59 -56 -142q0 -51 26 -87t76 -63q65 -36 237 -79q61 -15 90.5 -23t75.5 -24t78 -33q117 -62 117 -171q0 -115 -90 -186q-20 -101 -116 -157
q-107 -63 -260 -54q-152 9 -259 85q-120 85 -120 216h30q0 -116 108 -192q99 -70 243 -79t242 50q107 63 107 181q0 50 -25.5 84t-75.5 61q-30 16 -73.5 31t-74.5 23t-89.5 23t-90 23.5t-77 24.5t-77.5 34q-117 64 -117 176q0 114 90 187q14 68 65 117.5t120 73t148 24.5h9z
M165 611q-55 -58 -55 -141q0 -51 26 -86.5t76 -63.5q65 -36 237 -79q61 -15 90.5 -23t75.5 -23.5t78 -32.5q117 -63 117 -172v-5q55 57 55 141q0 50 -25.5 84t-75.5 61q-30 15 -73.5 30t-74.5 23.5t-89.5 23t-90 23.5t-77 25t-77.5 33q-117 65 -117 177v5z" />
    <glyph glyph-name="scaron" unicode="&#x161;" horiz-adv-x="860" 
d="M432 876l108 105l-21 22l-87 -85l-87 85l-21 -22zM427 806q69 -1 133 -20t116 -54.5t83 -93t31 -128.5h-30q0 139 -125 214q-109 64 -252 51q-141 -13 -217 -93q-56 -60 -56 -142q0 -51 26 -87t76 -63q65 -36 237 -79q61 -15 90.5 -23t75.5 -24t78 -33q117 -62 117 -171
q0 -69 -32.5 -121.5t-88.5 -86.5q-107 -63 -260 -53q-152 9 -259 84q-120 85 -120 217h30q0 -116 108 -192q99 -70 243 -79t242 49q107 63 107 182q0 50 -25.5 84t-75.5 61q-30 15 -73.5 30t-74.5 23.5t-89.5 23t-90 23t-77 25t-77.5 33.5q-117 65 -117 177q0 63 28.5 114.5
t76.5 83.5t108 49.5t126 18.5h8z" />
    <glyph glyph-name="copyright" unicode="&#xa9;" horiz-adv-x="629" 
d="M314.5 794q109.5 0 187 -81t77.5 -195t-77.5 -195t-187 -81t-187 81t-77.5 195t77.5 195t187 81zM314.5 774q-101.5 0 -173 -75t-71.5 -181t71.5 -181t173 -75t173 75t71.5 181t-71.5 181t-173 75zM314 679h4q56 -1 98 -38l12 -10l-20 -22l-12 10q-39 34 -90.5 30
t-86 -44t-32.5 -94t40 -91.5t89 -37t88 38.5l11 11l21 -21l-10 -11q-46 -47 -110 -47.5t-110 45t-49 111.5t40 116q46 54 117 54z" />
    <glyph glyph-name="uni0218" unicode="&#x218;" horiz-adv-x="860" 
d="M424 -247h30l-20 -72h-16zM427 806q69 -1 133 -20t116 -54.5t83 -93t31 -128.5h-30q0 139 -125 214q-109 64 -252 51q-141 -13 -217 -93q-56 -60 -56 -142q0 -51 26 -87t76 -63q65 -36 237 -79q61 -15 90.5 -23t75.5 -24t78 -33q117 -62 117 -171q0 -69 -32.5 -121.5
t-88.5 -86.5q-107 -63 -260 -53q-152 9 -259 84q-120 85 -120 217h30q0 -116 108 -192q99 -70 243 -79t242 49q107 63 107 182q0 50 -25.5 84t-75.5 61q-30 15 -73.5 30t-74.5 23.5t-89.5 23t-90 23t-77 25t-77.5 33.5q-117 65 -117 177q0 63 28.5 114.5t76.5 83.5t108 49.5
t126 18.5h8z" />
    <glyph glyph-name="guillemotleft" unicode="&#xab;" horiz-adv-x="717" 
d="M470 563l-420 -263l419 -263l16 26l-378 237l379 237zM652 563l-420 -263l419 -263l16 26l-378 237l379 237z" />
    <glyph glyph-name="Zacute" unicode="&#x179;" horiz-adv-x="963" 
d="M525 1034l23 -19l-120 -144l-23 19zM142 800h772l-800 -970l798 -5v-30l-862 5l800 970h-708v30z" />
    <glyph glyph-name="uni00AD" unicode="&#xad;" horiz-adv-x="563" 
d="M50 315h464v-30h-464v30z" />
    <glyph glyph-name="zacute" unicode="&#x17a;" horiz-adv-x="963" 
d="M525 1034l23 -19l-120 -144l-23 19zM142 800h772l-800 -970l798 -5v-30l-862 5l800 970h-708v30z" />
    <glyph glyph-name="Zdotaccent" unicode="&#x17b;" horiz-adv-x="963" 
d="M474 884h30v-30h-30v30zM142 800h772l-800 -970l798 -5v-30l-862 5l800 970h-708v30z" />
    <glyph glyph-name="plusminus" unicode="&#xb1;" 
 />
    <glyph glyph-name="Ccaron" unicode="&#x10c;" horiz-adv-x="927" 
d="M491 876l108 105l-21 22l-87 -85l-87 85l-21 -22zM529 800q84 0 164 -30t144 -87l12 -10l-20 -23l-11 10q-68 59 -151 87t-170 21.5t-165.5 -47t-137 -108.5t-88 -154.5t-26 -178t40 -175t100 -146.5t144.5 -96.5t168.5 -32.5t168 36t143.5 99l10 11l22 -21l-11 -11
q-66 -68 -152.5 -105.5t-180 -38.5t-180.5 35t-154.5 103t-106 155.5t-42 186t27.5 189t93.5 164t146 116t177.5 50.5q11 1 23 1h11z" />
    <glyph glyph-name="lslash" unicode="&#x142;" horiz-adv-x="894" 
d="M50 266l402 232l15 -26l-402 -232zM190 800h30v-970h625v-30h-655v0v1000z" />
    <glyph glyph-name="Zcaron" unicode="&#x17d;" horiz-adv-x="963" 
d="M491 876l108 105l-21 22l-87 -85l-87 85l-21 -22zM142 800h772l-800 -970l798 -5v-30l-862 5l800 970h-708v30z" />
    <glyph glyph-name="quotedblright" unicode="&#x201d;" 
 />
    <glyph glyph-name="paragraph" unicode="&#xb6;" 
 />
    <glyph glyph-name="periodcentered" unicode="&#xb7;" horiz-adv-x="136" 
d="M50 91h36v-36h-36v36z" />
    <glyph glyph-name="zcaron" unicode="&#x17e;" horiz-adv-x="963" 
d="M491 876l108 105l-21 22l-87 -85l-87 85l-21 -22zM142 800h772l-800 -970l798 -5v-30l-862 5l800 970h-708v30z" />
    <glyph glyph-name="ccaron" unicode="&#x10d;" horiz-adv-x="927" 
d="M491 876l108 105l-21 22l-87 -85l-87 85l-21 -22zM529 800q84 0 164 -30t144 -87l12 -10l-20 -23l-11 10q-68 59 -151 87t-170 21.5t-165.5 -47t-137 -108.5t-88 -154.5t-26 -178t40 -175t100 -146.5t144.5 -96.5t168.5 -32.5t168 36t143.5 99l10 11l22 -21l-11 -11
q-66 -68 -152.5 -105.5t-180 -38.5t-180.5 35t-154.5 103t-106 155.5t-42 186t27.5 189t93.5 164t146 116t177.5 50.5q11 1 23 1h11z" />
    <glyph glyph-name="uni0219" unicode="&#x219;" horiz-adv-x="860" 
d="M430 -235h30l-20 -72h-16zM427 806q69 -1 133 -20t116 -54.5t83 -93t31 -128.5h-30q0 139 -125 214q-109 64 -252 51q-141 -13 -217 -93q-56 -60 -56 -142q0 -51 26 -87t76 -63q65 -36 237 -79q61 -15 90.5 -23t75.5 -24t78 -33q117 -62 117 -171q0 -69 -32.5 -121.5
t-88.5 -86.5q-107 -63 -260 -53q-152 9 -259 84q-120 85 -120 217h30q0 -116 108 -192q99 -70 243 -79t242 49q107 63 107 182q0 50 -25.5 84t-75.5 61q-30 15 -73.5 30t-74.5 23.5t-89.5 23t-90 23t-77 25t-77.5 33.5q-117 65 -117 177q0 63 28.5 114.5t76.5 83.5t108 49.5
t126 18.5h8z" />
    <glyph glyph-name="guillemotright" unicode="&#xbb;" horiz-adv-x="717" 
d="M248 563l420 -263l-419 -263l-16 26l378 237l-379 237zM66 563l420 -263l-419 -263l-16 26l378 237l-379 237z" />
    <glyph glyph-name="OE" unicode="&#x152;" horiz-adv-x="1139" 
d="M529 770q-89 0 -171.5 -36t-145.5 -102t-97.5 -152.5t-34.5 -179.5t34.5 -179.5t97.5 -152.5t145.5 -102t171.5 -36h1v455v30v455h-1zM530 800h30h494v-30h-494v-455h449v-30h-449v-455h529v-30h-559h-1q-95 0 -183 38t-155.5 108.5t-104 162.5t-36.5 191t36.5 191
t104 162.5t155.5 108.5t183 38h1z" />
    <glyph glyph-name="oe" unicode="&#x153;" horiz-adv-x="1139" 
d="M529 770q-89 0 -171.5 -36t-145.5 -102t-97.5 -152.5t-34.5 -179.5t34.5 -179.5t97.5 -152.5t145.5 -102t171.5 -36h1v455v30v455h-1zM530 800h30h494v-30h-494v-455h449v-30h-449v-455h529v-30h-559h-1q-95 0 -183 38t-155.5 108.5t-104 162.5t-36.5 191t36.5 191
t104 162.5t155.5 108.5t183 38h1z" />
    <glyph glyph-name="Ydieresis" unicode="&#x178;" horiz-adv-x="972" 
d="M423 897h30v-30h-30v30zM519 897h30v-30h-30v30zM50 800h39l397 -486l398 486h39l-421 -516v-484h-31v484z" />
    <glyph glyph-name="zdotaccent" unicode="&#x17c;" horiz-adv-x="963" 
d="M474 884h30v-30h-30v30zM142 800h772l-800 -970l798 -5v-30l-862 5l800 970h-708v30z" />
    <glyph glyph-name="Agrave" unicode="&#xc0;" horiz-adv-x="984" 
d="M470 1034l-23 -19l120 -144l23 19zM492 808l442 -1008h-33l-93 213q-48 1 -88.5 8t-78.5 22.5t-59.5 26.5t-59.5 33q-48 28 -76.5 41.5t-81 28t-111.5 15.5l-170 -388h-33zM492 732l-226 -514q58 -3 112 -18t83 -29.5t76 -41.5q37 -21 56 -31t53.5 -24.5t70 -21.5
t77.5 -8z" />
    <glyph glyph-name="Aacute" unicode="&#xc1;" horiz-adv-x="984" 
d="M525 1034l23 -19l-120 -144l-23 19zM492 808l442 -1008h-33l-93 213q-48 1 -88.5 8t-78.5 22.5t-59.5 26.5t-59.5 33q-48 28 -76.5 41.5t-81 28t-111.5 15.5l-170 -388h-33zM492 732l-226 -514q58 -3 112 -18t83 -29.5t76 -41.5q37 -21 56 -31t53.5 -24.5t70 -21.5
t77.5 -8z" />
    <glyph glyph-name="Acircumflex" unicode="&#xc2;" horiz-adv-x="984" 
d="M491 1003l108 -105l-21 -22l-87 85l-87 -85l-21 22zM492 808l442 -1008h-33l-93 213q-48 1 -88.5 8t-78.5 22.5t-59.5 26.5t-59.5 33q-48 28 -76.5 41.5t-81 28t-111.5 15.5l-170 -388h-33zM492 732l-226 -514q58 -3 112 -18t83 -29.5t76 -41.5q37 -21 56 -31t53.5 -24.5
t70 -21.5t77.5 -8z" />
    <glyph glyph-name="Abreve" unicode="&#x102;" horiz-adv-x="984" 
d="M401 975h30q0 -32 15 -47t37 -14.5t37.5 16t15.5 45.5h30q0 -41 -24.5 -66t-57.5 -26t-58 24.5t-25 67.5zM492 808l442 -1008h-33l-93 213q-48 1 -88.5 8t-78.5 22.5t-59.5 26.5t-59.5 33q-48 28 -76.5 41.5t-81 28t-111.5 15.5l-170 -388h-33zM492 732l-226 -514
q58 -3 112 -18t83 -29.5t76 -41.5q37 -21 56 -31t53.5 -24.5t70 -21.5t77.5 -8z" />
    <glyph glyph-name="Adieresis" unicode="&#xc4;" horiz-adv-x="984" 
d="M431 897h30v-30h-30v30zM527 897h30v-30h-30v30zM492 808l442 -1008h-33l-93 213q-48 1 -88.5 8t-78.5 22.5t-59.5 26.5t-59.5 33q-48 28 -76.5 41.5t-81 28t-111.5 15.5l-170 -388h-33zM492 732l-226 -514q58 -3 112 -18t83 -29.5t76 -41.5q37 -21 56 -31t53.5 -24.5
t70 -21.5t77.5 -8z" />
    <glyph glyph-name="Cacute" unicode="&#x106;" horiz-adv-x="927" 
d="M525 1034l23 -19l-120 -144l-23 19zM529 800q84 0 164 -30t144 -87l12 -10l-20 -23l-11 10q-68 59 -151 87t-170 21.5t-165.5 -47t-137 -108.5t-88 -154.5t-26 -178t40 -175t100 -146.5t144.5 -96.5t168.5 -32.5t168 36t143.5 99l10 11l22 -21l-11 -11
q-66 -68 -152.5 -105.5t-180 -38.5t-180.5 35t-154.5 103t-106 155.5t-42 186t27.5 189t93.5 164t146 116t177.5 50.5q11 1 23 1h11z" />
    <glyph glyph-name="AE" unicode="&#xc6;" horiz-adv-x="1167" 
d="M594 800h30h458v-30h-458v-455h413v-30h-413v-455h493v-30h-523v485v30v455v-30l-280 -518q60 -1 115 -16.5t85 -30t78 -42.5q1 0 2 -1v-35q-8 5 -17 10q-38 22 -59.5 32.5t-57.5 25t-75.5 21t-86.5 7.5l-213 -393h-28h-3h-4z" />
    <glyph glyph-name="Ccedilla" unicode="&#xc7;" horiz-adv-x="927" 
d="M470 -196v-33v-31q32 0 47 -15t14.5 -37t-16 -37t-45.5 -15v-31q40 0 65.5 25t26.5 58q0 25 -16 47t-44 31v35q16 -1 32 -1q93 1 179.5 38.5t152.5 105.5l11 11l-22 21l-10 -11q-63 -64 -143.5 -99t-168 -36t-168.5 32.5t-144.5 96.5t-100 146.5t-40 175t26 178t88 154.5
t137 108.5t165.5 47t170 -21.5t151 -87l11 -10l20 23l-12 10q-64 57 -144 87t-164 30h-11q-12 0 -23 -1q-94 -7 -177.5 -50.5t-146 -116t-93.5 -164t-27.5 -189t42 -186t106.5 -155.5q114 -114 271 -134z" />
    <glyph glyph-name="Egrave" unicode="&#xc8;" horiz-adv-x="730" 
d="M335 1034l-23 -19l120 -144l23 19zM50 800h30h565v-30h-565v-455h520v-30h-520v-455h600v-30h-630v0v485v30v455v30v0z" />
    <glyph glyph-name="Eacute" unicode="&#xc9;" horiz-adv-x="730" 
d="M385 1044l23 -20l-120 -143l-23 19zM50 800h30h565v-30h-565v-455h520v-30h-520v-455h600v-30h-630v0v485v30v455v30v0z" />
    <glyph glyph-name="Ecircumflex" unicode="&#xca;" horiz-adv-x="730" 
d="M376 1003l108 -105l-21 -22l-87 85l-87 -85l-21 22zM50 800h30h565v-30h-565v-455h520v-30h-520v-455h600v-30h-630v0v485v30v455v30v0z" />
    <glyph glyph-name="Edieresis" unicode="&#xcb;" horiz-adv-x="730" 
d="M317 897h30v-30h-30v30zM413 897h30v-30h-30v30zM50 800h30h565v-30h-565v-455h520v-30h-520v-455h600v-30h-630v0v485v30v455v30v0z" />
    <glyph glyph-name="Igrave" unicode="&#xcc;" horiz-adv-x="243" 
d="M73 1027l-23 -19l120 -144l23 19zM95 800h30v-1000h-30v1000z" />
    <glyph glyph-name="Iacute" unicode="&#xcd;" horiz-adv-x="243" 
d="M170 1032l23 -20l-120 -143l-23 19zM111 800h30v-1000h-30v1000z" />
    <glyph glyph-name="Icircumflex" unicode="&#xce;" horiz-adv-x="316" 
d="M158 987l108 -105l-21 -22l-87 85l-87 -85l-21 22zM136 800h30v-1000h-30v1000z" />
    <glyph glyph-name="Idieresis" unicode="&#xcf;" horiz-adv-x="226" 
d="M50 886h30v-30h-30v30zM146 886h30v-30h-30v30zM95 800h30v-1000h-30v1000z" />
    <glyph glyph-name="Dcroat" unicode="&#x110;" horiz-adv-x="957" 
d="M179 800h305q103 0 184 -42t136 -116q52 -69 78 -158t25 -184t-28 -184t-80 -159q-56 -73 -137 -115t-183 -42h-300v0v514h-129v30h129v456v0zM209 314v-484h270q186 0 296 146q49 64 75 149t27 175.5t-24 175t-73 148.5q-109 146 -296 146h-275v-426h305v-30h-305z" />
    <glyph glyph-name="Nacute" unicode="&#x143;" horiz-adv-x="905" 
d="M525 1034l23 -19l-120 -144l-23 19zM50 800h30q1 -120 118 -261q78 -94 264 -253q7 -6 40.5 -34.5t43.5 -37t38 -33t41.5 -37t35 -32.5t38 -36.5t31.5 -33.5q65 -70 95 -129v873v14h30v-14v-986h-30q0 95 -117 222q-13 14 -28.5 29.5l-28.5 28.5t-33.5 31t-32 28.5
t-35.5 31.5t-34 29.5t-37.5 32t-35.5 30.5q-91 77 -155 137t-113 120q-64 76 -95 146v-851v-15h-30v15v985z" />
    <glyph glyph-name="Ograve" unicode="&#xd2;" horiz-adv-x="1058" 
d="M494 1034l-23 -19l120 -144l23 19zM529.5 801q95.5 0 183.5 -38.5t155.5 -108.5t104 -162t36.5 -191t-36.5 -191t-104 -162.5t-155.5 -108.5t-183.5 -38t-183.5 38t-155.5 108.5t-104 162.5t-36.5 191t36.5 191t104 162t155.5 108.5t183.5 38.5zM529.5 770
q-89.5 0 -172 -35.5t-145.5 -101.5t-97.5 -152.5t-34.5 -180t34.5 -179.5t97.5 -152t145.5 -102t172 -36t172 36t145.5 102t97.5 152t34.5 179.5t-34.5 180t-97.5 152.5t-145.5 101.5t-172 35.5z" />
    <glyph glyph-name="Oacute" unicode="&#xd3;" horiz-adv-x="1058" 
d="M549 1034l23 -19l-120 -144l-23 19zM529.5 801q95.5 0 183.5 -38.5t155.5 -108.5t104 -162t36.5 -191t-36.5 -191t-104 -162.5t-155.5 -108.5t-183.5 -38t-183.5 38t-155.5 108.5t-104 162.5t-36.5 191t36.5 191t104 162t155.5 108.5t183.5 38.5zM529.5 770
q-89.5 0 -172 -35.5t-145.5 -101.5t-97.5 -152.5t-34.5 -180t34.5 -179.5t97.5 -152t145.5 -102t172 -36t172 36t145.5 102t97.5 152t34.5 179.5t-34.5 180t-97.5 152.5t-145.5 101.5t-172 35.5z" />
    <glyph glyph-name="Ocircumflex" unicode="&#xd4;" horiz-adv-x="1058" 
d="M522 1003l108 -105l-21 -22l-87 85l-87 -85l-21 22zM529.5 801q95.5 0 183.5 -38.5t155.5 -108.5t104 -162t36.5 -191t-36.5 -191t-104 -162.5t-155.5 -108.5t-183.5 -38t-183.5 38t-155.5 108.5t-104 162.5t-36.5 191t36.5 191t104 162t155.5 108.5t183.5 38.5z
M529.5 770q-89.5 0 -172 -35.5t-145.5 -101.5t-97.5 -152.5t-34.5 -180t34.5 -179.5t97.5 -152t145.5 -102t172 -36t172 36t145.5 102t97.5 152t34.5 179.5t-34.5 180t-97.5 152.5t-145.5 101.5t-172 35.5z" />
    <glyph glyph-name="Ohungarumlaut" unicode="&#x150;" horiz-adv-x="1058" 
d="M546 1034l23 -19l-120 -144l-23 19zM611 1034l23 -19l-120 -144l-23 19zM529.5 801q95.5 0 183.5 -38.5t155.5 -108.5t104 -162t36.5 -191t-36.5 -191t-104 -162.5t-155.5 -108.5t-183.5 -38t-183.5 38t-155.5 108.5t-104 162.5t-36.5 191t36.5 191t104 162t155.5 108.5
t183.5 38.5zM529.5 770q-89.5 0 -172 -35.5t-145.5 -101.5t-97.5 -152.5t-34.5 -180t34.5 -179.5t97.5 -152t145.5 -102t172 -36t172 36t145.5 102t97.5 152t34.5 179.5t-34.5 180t-97.5 152.5t-145.5 101.5t-172 35.5z" />
    <glyph glyph-name="Odieresis" unicode="&#xd6;" horiz-adv-x="1058" 
d="M454 897h30v-30h-30v30zM550 897h30v-30h-30v30zM529.5 801q95.5 0 183.5 -38.5t155.5 -108.5t104 -162t36.5 -191t-36.5 -191t-104 -162.5t-155.5 -108.5t-183.5 -38t-183.5 38t-155.5 108.5t-104 162.5t-36.5 191t36.5 191t104 162t155.5 108.5t183.5 38.5zM529.5 770
q-89.5 0 -172 -35.5t-145.5 -101.5t-97.5 -152.5t-34.5 -180t34.5 -179.5t97.5 -152t145.5 -102t172 -36t172 36t145.5 102t97.5 152t34.5 179.5t-34.5 180t-97.5 152.5t-145.5 101.5t-172 35.5z" />
    <glyph glyph-name="Sacute" unicode="&#x15a;" horiz-adv-x="860" 
d="M472 1034l23 -19l-120 -144l-23 19zM427 806q69 -1 133 -20t116 -54.5t83 -93t31 -128.5h-30q0 139 -125 214q-109 64 -252 51q-141 -13 -217 -93q-56 -60 -56 -142q0 -51 26 -87t76 -63q65 -36 237 -79q61 -15 90.5 -23t75.5 -24t78 -33q117 -62 117 -171
q0 -69 -32.5 -121.5t-88.5 -86.5q-107 -63 -260 -53q-152 9 -259 84q-120 85 -120 217h30q0 -116 108 -192q99 -70 243 -79t242 49q107 63 107 182q0 50 -25.5 84t-75.5 61q-30 15 -73.5 30t-74.5 23.5t-89.5 23t-90 23t-77 25t-77.5 33.5q-117 65 -117 177q0 63 28.5 114.5
t76.5 83.5t108 49.5t126 18.5h8z" />
    <glyph glyph-name="Uhungarumlaut" unicode="&#x170;" horiz-adv-x="850" 
d="M472 1034l23 -19l-120 -144l-23 19zM537 1034l23 -19l-120 -144l-23 19zM50 800h30v-640q0 -156 107 -247q97 -83 238 -83t238 83q107 91 107 247v640h30v-640q0 -170 -118 -270q-105 -90 -257 -90t-257 90q-118 100 -118 270v640z" />
    <glyph glyph-name="Ugrave" unicode="&#xd9;" horiz-adv-x="850" 
d="M428 1034l-23 -19l120 -144l23 19zM50 800h30v-640q0 -156 107 -247q97 -83 238 -83t238 83q107 91 107 247v640h30v-640q0 -170 -118 -270q-105 -90 -257 -90t-257 90q-118 100 -118 270v640z" />
    <glyph glyph-name="Uacute" unicode="&#xda;" horiz-adv-x="850" 
d="M525 1034l23 -19l-120 -144l-23 19zM50 800h30v-640q0 -156 107 -247q97 -83 238 -83t238 83q107 91 107 247v640h30v-640q0 -170 -118 -270q-105 -90 -257 -90t-257 90q-118 100 -118 270v640z" />
    <glyph glyph-name="Ucircumflex" unicode="&#xdb;" horiz-adv-x="850" 
d="M455 1003l108 -105l-21 -22l-87 85l-87 -85l-21 22zM50 800h30v-640q0 -156 107 -247q97 -83 238 -83t238 83q107 91 107 247v640h30v-640q0 -170 -118 -270q-105 -90 -257 -90t-257 90q-118 100 -118 270v640z" />
    <glyph glyph-name="Udieresis" unicode="&#xdc;" horiz-adv-x="850" 
d="M378 897h30v-30h-30v30zM474 897h30v-30h-30v30zM50 800h30v-640q0 -156 107 -247q97 -83 238 -83t238 83q107 91 107 247v640h30v-640q0 -170 -118 -270q-105 -90 -257 -90t-257 90q-118 100 -118 270v640z" />
    <glyph glyph-name="Eogonek" unicode="&#x118;" horiz-adv-x="730" 
d="M50 800h30h565v-30h-565v-455h520v-30h-520v-455h600v-30q-32 0 -47 -15t-14.5 -37t16 -37.5t45.5 -15.5v-30q-41 0 -66 24.5t-26 57.5q-1 30 20 53h-558v0v485v30v455v30z" />
    <glyph glyph-name="uni021A" unicode="&#x21a;" horiz-adv-x="1025" 
d="M496 -226h30l-20 -72h-16zM50 800h925v-30h-447v-970h-31v970h-447v30z" />
    <glyph glyph-name="germandbls" unicode="&#xdf;" horiz-adv-x="771" 
d="M314 800q81 0 144 -40q36 -23 57 -57t21 -74v0q0 -30 -7 -58.5t-23 -59t-27 -48.5t-34 -51q-29 -42 -43.5 -66t-28.5 -61.5t-14 -72.5q0 -34 49 -100q42 -56 115 -130q37 -38 78.5 -76.5t65.5 -58.5l23 -20l31 -27h-532v30l451 1q-76 66 -139 130q-74 75 -117 133
q-56 74 -56 118q0 31 7 59.5t23.5 59t27.5 48t34 50.5q29 42 43.5 66t28.5 62t14 72q0 64 -64.5 105.5t-147.5 34.5q-89 -8 -146 -72q-68 -76 -68 -212v-684h-30v684q0 148 75 232q65 73 167 82q11 1 22 1z" />
    <glyph glyph-name="agrave" unicode="&#xe0;" horiz-adv-x="984" 
d="M470 1034l-23 -19l120 -144l23 19zM492 808l442 -1008h-33l-93 213q-48 1 -88.5 8t-78.5 22.5t-59.5 26.5t-59.5 33q-48 28 -76.5 41.5t-81 28t-111.5 15.5l-170 -388h-33zM492 732l-226 -514q58 -3 112 -18t83 -29.5t76 -41.5q37 -21 56 -31t53.5 -24.5t70 -21.5
t77.5 -8z" />
    <glyph glyph-name="aacute" unicode="&#xe1;" horiz-adv-x="984" 
d="M525 1034l23 -19l-120 -144l-23 19zM492 808l442 -1008h-33l-93 213q-48 1 -88.5 8t-78.5 22.5t-59.5 26.5t-59.5 33q-48 28 -76.5 41.5t-81 28t-111.5 15.5l-170 -388h-33zM492 732l-226 -514q58 -3 112 -18t83 -29.5t76 -41.5q37 -21 56 -31t53.5 -24.5t70 -21.5
t77.5 -8z" />
    <glyph glyph-name="acircumflex" unicode="&#xe2;" horiz-adv-x="984" 
d="M491 1003l108 -105l-21 -22l-87 85l-87 -85l-21 22zM492 808l442 -1008h-33l-93 213q-48 1 -88.5 8t-78.5 22.5t-59.5 26.5t-59.5 33q-48 28 -76.5 41.5t-81 28t-111.5 15.5l-170 -388h-33zM492 732l-226 -514q58 -3 112 -18t83 -29.5t76 -41.5q37 -21 56 -31t53.5 -24.5
t70 -21.5t77.5 -8z" />
    <glyph glyph-name="abreve" unicode="&#x103;" horiz-adv-x="984" 
d="M401 975h30q0 -32 15 -47t37 -14.5t37.5 16t15.5 45.5h30q0 -41 -24.5 -66t-57.5 -26t-58 24.5t-25 67.5zM492 808l442 -1008h-33l-93 213q-48 1 -88.5 8t-78.5 22.5t-59.5 26.5t-59.5 33q-48 28 -76.5 41.5t-81 28t-111.5 15.5l-170 -388h-33zM492 732l-226 -514
q58 -3 112 -18t83 -29.5t76 -41.5q37 -21 56 -31t53.5 -24.5t70 -21.5t77.5 -8z" />
    <glyph glyph-name="adieresis" unicode="&#xe4;" horiz-adv-x="984" 
d="M431 897h30v-30h-30v30zM527 897h30v-30h-30v30zM492 808l442 -1008h-33l-93 213q-48 1 -88.5 8t-78.5 22.5t-59.5 26.5t-59.5 33q-48 28 -76.5 41.5t-81 28t-111.5 15.5l-170 -388h-33zM492 732l-226 -514q58 -3 112 -18t83 -29.5t76 -41.5q37 -21 56 -31t53.5 -24.5
t70 -21.5t77.5 -8z" />
    <glyph glyph-name="cacute" unicode="&#x107;" horiz-adv-x="927" 
d="M525 1034l23 -19l-120 -144l-23 19zM529 800q84 0 164 -30t144 -87l12 -10l-20 -23l-11 10q-68 59 -151 87t-170 21.5t-165.5 -47t-137 -108.5t-88 -154.5t-26 -178t40 -175t100 -146.5t144.5 -96.5t168.5 -32.5t168 36t143.5 99l10 11l22 -21l-11 -11
q-66 -68 -152.5 -105.5t-180 -38.5t-180.5 35t-154.5 103t-106 155.5t-42 186t27.5 189t93.5 164t146 116t177.5 50.5q11 1 23 1h11z" />
    <glyph glyph-name="ae" unicode="&#xe6;" horiz-adv-x="1167" 
d="M594 800h30h458v-30h-458v-455h413v-30h-413v-455h493v-30h-523v485v30v455v-30l-280 -518q60 -1 115 -16.5t85 -30t78 -42.5q1 0 2 -1v-35q-8 5 -17 10q-38 22 -59.5 32.5t-57.5 25t-75.5 21t-86.5 7.5l-213 -393h-28h-3h-4z" />
    <glyph glyph-name="ccedilla" unicode="&#xe7;" horiz-adv-x="927" 
d="M470 -196v-33v-31q32 0 47 -15t14.5 -37t-16 -37t-45.5 -15v-31q40 0 65.5 25t26.5 58q0 25 -16 47t-44 31v35q16 -1 32 -1q93 1 179.5 38.5t152.5 105.5l11 11l-22 21l-10 -11q-63 -64 -143.5 -99t-168 -36t-168.5 32.5t-144.5 96.5t-100 146.5t-40 175t26 178t88 154.5
t137 108.5t165.5 47t170 -21.5t151 -87l11 -10l20 23l-12 10q-64 57 -144 87t-164 30h-11q-12 0 -23 -1q-94 -7 -177.5 -50.5t-146 -116t-93.5 -164t-27.5 -189t42 -186t106.5 -155.5q114 -114 271 -134z" />
    <glyph glyph-name="egrave" unicode="&#xe8;" horiz-adv-x="730" 
d="M335 1034l-23 -19l120 -144l23 19zM50 800h30h565v-30h-565v-455h520v-30h-520v-455h600v-30h-630v0v485v30v455v30v0z" />
    <glyph glyph-name="eacute" unicode="&#xe9;" horiz-adv-x="730" 
d="M385 1044l23 -20l-120 -143l-23 19zM50 800h30h565v-30h-565v-455h520v-30h-520v-455h600v-30h-630v0v485v30v455v30v0z" />
    <glyph glyph-name="ecircumflex" unicode="&#xea;" horiz-adv-x="730" 
d="M376 1003l108 -105l-21 -22l-87 85l-87 -85l-21 22zM50 800h30h565v-30h-565v-455h520v-30h-520v-455h600v-30h-630v0v485v30v455v30v0z" />
    <glyph glyph-name="edieresis" unicode="&#xeb;" horiz-adv-x="730" 
d="M317 897h30v-30h-30v30zM413 897h30v-30h-30v30zM50 800h30h565v-30h-565v-455h520v-30h-520v-455h600v-30h-630v0v485v30v455v30v0z" />
    <glyph glyph-name="igrave" unicode="&#xec;" horiz-adv-x="243" 
d="M73 1027l-23 -19l120 -144l23 19zM95 800h30v-1000h-30v1000z" />
    <glyph glyph-name="iacute" unicode="&#xed;" horiz-adv-x="243" 
d="M170 1032l23 -20l-120 -143l-23 19zM111 800h30v-1000h-30v1000z" />
    <glyph glyph-name="icircumflex" unicode="&#xee;" horiz-adv-x="316" 
d="M158 987l108 -105l-21 -22l-87 85l-87 -85l-21 22zM136 800h30v-1000h-30v1000z" />
    <glyph glyph-name="idieresis" unicode="&#xef;" horiz-adv-x="226" 
d="M50 886h30v-30h-30v30zM146 886h30v-30h-30v30zM95 800h30v-1000h-30v1000z" />
    <glyph glyph-name="dcroat" unicode="&#x111;" horiz-adv-x="957" 
d="M179 800h305q103 0 184 -42t136 -116q52 -69 78 -158t25 -184t-28 -184t-80 -159q-56 -73 -137 -115t-183 -42h-300v0v514h-129v30h129v456v0zM209 314v-484h270q186 0 296 146q49 64 75 149t27 175.5t-24 175t-73 148.5q-109 146 -296 146h-275v-426h305v-30h-305z" />
    <glyph glyph-name="nacute" unicode="&#x144;" horiz-adv-x="905" 
d="M525 1034l23 -19l-120 -144l-23 19zM50 800h30q1 -120 118 -261q78 -94 264 -253q7 -6 40.5 -34.5t43.5 -37t38 -33t41.5 -37t35 -32.5t38 -36.5t31.5 -33.5q65 -70 95 -129v873v14h30v-14v-986h-30q0 95 -117 222q-13 14 -28.5 29.5l-28.5 28.5t-33.5 31t-32 28.5
t-35.5 31.5t-34 29.5t-37.5 32t-35.5 30.5q-91 77 -155 137t-113 120q-64 76 -95 146v-851v-15h-30v15v985z" />
    <glyph glyph-name="ograve" unicode="&#xf2;" horiz-adv-x="1058" 
d="M494 1034l-23 -19l120 -144l23 19zM529.5 801q95.5 0 183.5 -38.5t155.5 -108.5t104 -162t36.5 -191t-36.5 -191t-104 -162.5t-155.5 -108.5t-183.5 -38t-183.5 38t-155.5 108.5t-104 162.5t-36.5 191t36.5 191t104 162t155.5 108.5t183.5 38.5zM529.5 770
q-89.5 0 -172 -35.5t-145.5 -101.5t-97.5 -152.5t-34.5 -180t34.5 -179.5t97.5 -152t145.5 -102t172 -36t172 36t145.5 102t97.5 152t34.5 179.5t-34.5 180t-97.5 152.5t-145.5 101.5t-172 35.5z" />
    <glyph glyph-name="oacute" unicode="&#xf3;" horiz-adv-x="1058" 
d="M549 1034l23 -19l-120 -144l-23 19zM529.5 801q95.5 0 183.5 -38.5t155.5 -108.5t104 -162t36.5 -191t-36.5 -191t-104 -162.5t-155.5 -108.5t-183.5 -38t-183.5 38t-155.5 108.5t-104 162.5t-36.5 191t36.5 191t104 162t155.5 108.5t183.5 38.5zM529.5 770
q-89.5 0 -172 -35.5t-145.5 -101.5t-97.5 -152.5t-34.5 -180t34.5 -179.5t97.5 -152t145.5 -102t172 -36t172 36t145.5 102t97.5 152t34.5 179.5t-34.5 180t-97.5 152.5t-145.5 101.5t-172 35.5z" />
    <glyph glyph-name="ocircumflex" unicode="&#xf4;" horiz-adv-x="1058" 
d="M522 1003l108 -105l-21 -22l-87 85l-87 -85l-21 22zM529.5 801q95.5 0 183.5 -38.5t155.5 -108.5t104 -162t36.5 -191t-36.5 -191t-104 -162.5t-155.5 -108.5t-183.5 -38t-183.5 38t-155.5 108.5t-104 162.5t-36.5 191t36.5 191t104 162t155.5 108.5t183.5 38.5z
M529.5 770q-89.5 0 -172 -35.5t-145.5 -101.5t-97.5 -152.5t-34.5 -180t34.5 -179.5t97.5 -152t145.5 -102t172 -36t172 36t145.5 102t97.5 152t34.5 179.5t-34.5 180t-97.5 152.5t-145.5 101.5t-172 35.5z" />
    <glyph glyph-name="ohungarumlaut" unicode="&#x151;" horiz-adv-x="1058" 
d="M546 1034l23 -19l-120 -144l-23 19zM611 1034l23 -19l-120 -144l-23 19zM529.5 801q95.5 0 183.5 -38.5t155.5 -108.5t104 -162t36.5 -191t-36.5 -191t-104 -162.5t-155.5 -108.5t-183.5 -38t-183.5 38t-155.5 108.5t-104 162.5t-36.5 191t36.5 191t104 162t155.5 108.5
t183.5 38.5zM529.5 770q-89.5 0 -172 -35.5t-145.5 -101.5t-97.5 -152.5t-34.5 -180t34.5 -179.5t97.5 -152t145.5 -102t172 -36t172 36t145.5 102t97.5 152t34.5 179.5t-34.5 180t-97.5 152.5t-145.5 101.5t-172 35.5z" />
    <glyph glyph-name="odieresis" unicode="&#xf6;" horiz-adv-x="1058" 
d="M454 897h30v-30h-30v30zM550 897h30v-30h-30v30zM529.5 801q95.5 0 183.5 -38.5t155.5 -108.5t104 -162t36.5 -191t-36.5 -191t-104 -162.5t-155.5 -108.5t-183.5 -38t-183.5 38t-155.5 108.5t-104 162.5t-36.5 191t36.5 191t104 162t155.5 108.5t183.5 38.5zM529.5 770
q-89.5 0 -172 -35.5t-145.5 -101.5t-97.5 -152.5t-34.5 -180t34.5 -179.5t97.5 -152t145.5 -102t172 -36t172 36t145.5 102t97.5 152t34.5 179.5t-34.5 180t-97.5 152.5t-145.5 101.5t-172 35.5z" />
    <glyph glyph-name="sacute" unicode="&#x15b;" horiz-adv-x="860" 
d="M472 1034l23 -19l-120 -144l-23 19zM427 806q69 -1 133 -20t116 -54.5t83 -93t31 -128.5h-30q0 139 -125 214q-109 64 -252 51q-141 -13 -217 -93q-56 -60 -56 -142q0 -51 26 -87t76 -63q65 -36 237 -79q61 -15 90.5 -23t75.5 -24t78 -33q117 -62 117 -171
q0 -69 -32.5 -121.5t-88.5 -86.5q-107 -63 -260 -53q-152 9 -259 84q-120 85 -120 217h30q0 -116 108 -192q99 -70 243 -79t242 49q107 63 107 182q0 50 -25.5 84t-75.5 61q-30 15 -73.5 30t-74.5 23.5t-89.5 23t-90 23t-77 25t-77.5 33.5q-117 65 -117 177q0 63 28.5 114.5
t76.5 83.5t108 49.5t126 18.5h8z" />
    <glyph glyph-name="uhungarumlaut" unicode="&#x171;" horiz-adv-x="850" 
d="M472 1034l23 -19l-120 -144l-23 19zM537 1034l23 -19l-120 -144l-23 19zM50 800h30v-640q0 -156 107 -247q97 -83 238 -83t238 83q107 91 107 247v640h30v-640q0 -170 -118 -270q-105 -90 -257 -90t-257 90q-118 100 -118 270v640z" />
    <glyph glyph-name="ugrave" unicode="&#xf9;" horiz-adv-x="850" 
d="M428 1034l-23 -19l120 -144l23 19zM50 800h30v-640q0 -156 107 -247q97 -83 238 -83t238 83q107 91 107 247v640h30v-640q0 -170 -118 -270q-105 -90 -257 -90t-257 90q-118 100 -118 270v640z" />
    <glyph glyph-name="uacute" unicode="&#xfa;" horiz-adv-x="850" 
d="M525 1034l23 -19l-120 -144l-23 19zM50 800h30v-640q0 -156 107 -247q97 -83 238 -83t238 83q107 91 107 247v640h30v-640q0 -170 -118 -270q-105 -90 -257 -90t-257 90q-118 100 -118 270v640z" />
    <glyph glyph-name="ucircumflex" unicode="&#xfb;" horiz-adv-x="850" 
d="M455 1003l108 -105l-21 -22l-87 85l-87 -85l-21 22zM50 800h30v-640q0 -156 107 -247q97 -83 238 -83t238 83q107 91 107 247v640h30v-640q0 -170 -118 -270q-105 -90 -257 -90t-257 90q-118 100 -118 270v640z" />
    <glyph glyph-name="udieresis" unicode="&#xfc;" horiz-adv-x="850" 
d="M378 897h30v-30h-30v30zM474 897h30v-30h-30v30zM50 800h30v-640q0 -156 107 -247q97 -83 238 -83t238 83q107 91 107 247v640h30v-640q0 -170 -118 -270q-105 -90 -257 -90t-257 90q-118 100 -118 270v640z" />
    <glyph glyph-name="eogonek" unicode="&#x119;" horiz-adv-x="730" 
d="M50 800h30h565v-30h-565v-455h520v-30h-520v-455h600v-30q-32 0 -47 -15t-14.5 -37t16 -37.5t45.5 -15.5v-30q-41 0 -66 24.5t-26 57.5q-1 30 20 53h-558v0v485v30v455v30z" />
    <glyph glyph-name="uni021B" unicode="&#x21b;" horiz-adv-x="1025" 
d="M496 -226h30l-20 -72h-16zM50 800h925v-30h-447v-970h-31v970h-447v30z" />
    <glyph glyph-name="ydieresis" unicode="&#xff;" horiz-adv-x="972" 
d="M421 897h30v-30h-30v30zM517 897h30v-30h-30v30zM50 800h39l397 -486l398 486h39l-421 -516v-484h-31v484z" />
    <glyph glyph-name="Atilde" unicode="&#xc3;" horiz-adv-x="984" 
d="M605 969l20 -28q-25 -34 -47 -47.5t-37.5 -10t-29.5 14.5t-27 21.5t-26.5 15t-30.5 -8t-37 -45.5l-21 26q25 37 46 53t36.5 13t29 -13t27 -21.5t27 -16.5t31.5 5.5t39 41.5zM492 808l442 -1008h-33l-93 213q-48 1 -88.5 8t-78.5 22.5t-59.5 26.5t-59.5 33
q-48 28 -76.5 41.5t-81 28t-111.5 15.5l-170 -388h-33zM492 732l-226 -514q58 -3 112 -18t83 -29.5t76 -41.5q37 -21 56 -31t53.5 -24.5t70 -21.5t77.5 -8z" />
    <glyph glyph-name="Aring" unicode="&#xc5;" horiz-adv-x="984" 
d="M576 929q0 41 -24.5 66t-57.5 26t-58 -24.5t-25 -67.5t25 -67.5t58 -24.5t57.5 26t24.5 66zM546 930q0 -30 -15.5 -46t-37.5 -17q-22 0 -37 15t-15 47t15 47t37 14.5t37.5 -15.5t15.5 -45zM492 732l-226 -514q58 -3 112 -18t83 -29.5t76 -41.5q37 -21 56 -31t53.5 -24.5
t70 -21.5t77.5 -8zM492 808l442 -1008h-33l-93 213q-48 1 -88.5 8t-78.5 22.5t-59.5 26.5t-59.5 33q-48 28 -76.5 41.5t-81 28t-111.5 15.5l-170 -388h-33z" />
    <glyph glyph-name="atilde" unicode="&#xe3;" horiz-adv-x="984" 
d="M605 969l20 -28q-25 -34 -47 -47.5t-37.5 -10t-29.5 14.5t-27 21.5t-26.5 15t-30.5 -8t-37 -45.5l-21 26q25 37 46 53t36.5 13t29 -13t27 -21.5t27 -16.5t31.5 5.5t39 41.5zM492 808l442 -1008h-33l-93 213q-48 1 -88.5 8t-78.5 22.5t-59.5 26.5t-59.5 33
q-48 28 -76.5 41.5t-81 28t-111.5 15.5l-170 -388h-33zM492 732l-226 -514q58 -3 112 -18t83 -29.5t76 -41.5q37 -21 56 -31t53.5 -24.5t70 -21.5t77.5 -8z" />
    <glyph glyph-name="aring" unicode="&#xe5;" horiz-adv-x="984" 
d="M576 929q0 41 -24.5 66t-57.5 26t-58 -24.5t-25 -67.5t25 -67.5t58 -24.5t57.5 26t24.5 66zM546 930q0 -30 -15.5 -46t-37.5 -17q-22 0 -37 15t-15 47t15 47t37 14.5t37.5 -15.5t15.5 -45zM492 732l-226 -514q58 -3 112 -18t83 -29.5t76 -41.5q37 -21 56 -31t53.5 -24.5
t70 -21.5t77.5 -8zM492 808l442 -1008h-33l-93 213q-48 1 -88.5 8t-78.5 22.5t-59.5 26.5t-59.5 33q-48 28 -76.5 41.5t-81 28t-111.5 15.5l-170 -388h-33z" />
    <glyph glyph-name="Otilde" unicode="&#xd5;" horiz-adv-x="1058" 
d="M622 969l20 -28q-25 -34 -47 -47.5t-37.5 -10t-29.5 14.5t-27 21.5t-26.5 15t-30.5 -8t-37 -45.5l-21 26q25 37 46 53t36.5 13t29 -13t27 -21.5t27 -16.5t31.5 5.5t39 41.5zM529.5 801q95.5 0 183.5 -38.5t155.5 -108.5t104 -162t36.5 -191t-36.5 -191t-104 -162.5
t-155.5 -108.5t-183.5 -38t-183.5 38t-155.5 108.5t-104 162.5t-36.5 191t36.5 191t104 162t155.5 108.5t183.5 38.5zM529.5 770q-89.5 0 -172 -35.5t-145.5 -101.5t-97.5 -152.5t-34.5 -180t34.5 -179.5t97.5 -152t145.5 -102t172 -36t172 36t145.5 102t97.5 152
t34.5 179.5t-34.5 180t-97.5 152.5t-145.5 101.5t-172 35.5z" />
    <glyph glyph-name="otilde" unicode="&#xf5;" horiz-adv-x="1058" 
d="M622 969l20 -28q-25 -34 -47 -47.5t-37.5 -10t-29.5 14.5t-27 21.5t-26.5 15t-30.5 -8t-37 -45.5l-21 26q25 37 46 53t36.5 13t29 -13t27 -21.5t27 -16.5t31.5 5.5t39 41.5zM529.5 801q95.5 0 183.5 -38.5t155.5 -108.5t104 -162t36.5 -191t-36.5 -191t-104 -162.5
t-155.5 -108.5t-183.5 -38t-183.5 38t-155.5 108.5t-104 162.5t-36.5 191t36.5 191t104 162t155.5 108.5t183.5 38.5zM529.5 770q-89.5 0 -172 -35.5t-145.5 -101.5t-97.5 -152.5t-34.5 -180t34.5 -179.5t97.5 -152t145.5 -102t172 -36t172 36t145.5 102t97.5 152
t34.5 179.5t-34.5 180t-97.5 152.5t-145.5 101.5t-172 35.5z" />
    <glyph glyph-name="sterling" unicode="&#xa3;" horiz-adv-x="759" 
d="M368 800q94 0 157 -59q76 -71 76 -202h-30q0 118 -67 180q-58 54 -146 51q-85 -4 -149 -61t-64 -147q0 -34 13.5 -66.5t28 -51.5t43.5 -52q22 -26 34 -41t28 -40.5t23 -52t7 -56.5h192v-30h-195q-8 -33 -33 -84q-29 -56 -78 -129q-43 -63 -94 -129h596v-30h-659l20 25
q56 69 111 151q49 72 77 126q20 40 28 70h-237v30h242q0 34 -13.5 66.5t-28 51.5t-43.5 52q-22 26 -34 41t-28 40.5t-23 52t-7 56.5q0 69 35.5 123.5t90 83t116.5 31.5h11z" />
    <glyph glyph-name="registered" unicode="&#xae;" horiz-adv-x="629" 
d="M314.5 794q109.5 0 187 -81t77.5 -195t-77.5 -195t-187 -81t-187 81t-77.5 195t77.5 195t187 81zM314.5 774q-101.5 0 -173 -75t-71.5 -181t71.5 -181t173 -75t173 75t71.5 181t-71.5 181t-173 75zM213 692h125q40 0 64 -31q21 -28 21 -66q1 -38 -20 -65q-13 -17 -32 -25
q2 -3 5 -5q16 -18 35 -57q18 -39 27 -50q14 -19 34 -19v-30q-34 0 -58 30q-11 14 -31 56q-16 35 -29 49q-17 18 -41 19h-70v-144h-30v308v30zM243 662v-134h66h4h25q26 0 41 20q14 19 14 47t-15 47q-15 20 -40 20h-95z" />
    <glyph glyph-name="Yacute" unicode="&#xdd;" horiz-adv-x="972" 
d="M492 1044l23 -20l-120 -143l-23 19zM50 800h39l397 -486l398 486h39l-421 -516v-484h-31v484z" />
    <glyph glyph-name="O_C" unicode="&#xe000;" horiz-adv-x="1599" 
d="M1201 823q175 -4 310 -120l11 -9l-19 -23l-12 10q-70 60 -157.5 89t-178.5 21.5t-172.5 -50t-142.5 -113.5t-92 -161t-27.5 -185.5t41 -183t103.5 -153.5t150.5 -102t176 -36t176 35.5t150.5 101.5l11 11l21 -21l-11 -11q-70 -70 -160 -108t-187.5 -38t-188 38
t-160.5 108.5t-109.5 163t-43 193.5t29 196.5t97.5 171t152 121t184 52.5q24 2 48 2zM552 823q100 0 192 -40t162.5 -113.5t108.5 -169.5t38 -200t-38 -200t-108.5 -169.5t-162.5 -113.5t-192 -40t-192.5 40t-163 113.5t-108.5 169.5t-38 200t38 200t108.5 169.5t163 113.5
t192.5 40zM551.5 793q-93.5 0 -180 -37.5t-153 -107t-102.5 -160t-36 -188.5t36 -188.5t102.5 -160t153 -107t180 -37.5t180 37.5t153 107t102.5 160t36 188.5t-36 188.5t-102.5 160t-153 107t-180 37.5z" />
    <glyph glyph-name="C_O" unicode="&#xe013;" horiz-adv-x="927" 
d="M529 800q84 0 164 -30t144 -87l12 -10l-20 -22l-11 9q-68 59 -151 87t-170 21.5t-165.5 -47t-137 -108.5t-88 -154.5t-26 -178t40 -175t100 -146.5t144.5 -96.5t168.5 -32.5t168 36t143.5 99l10 11l22 -21l-11 -11q-66 -68 -152.5 -105.5t-180 -38.5t-180.5 35
t-154.5 103t-106 155.5t-42 186t27.5 189t93.5 164t146 116t177.5 50.5q11 1 23 1h11zM531.5 600q120.5 0 205.5 -88t85 -212t-85 -212t-205.5 -88t-205.5 88t-85 212t85 212t205.5 88zM531.5 570q-107.5 0 -184 -79t-76.5 -191t76.5 -191t184 -79t184 79t76.5 191
t-76.5 191t-184 79z" />
    <glyph glyph-name="A.2" unicode="&#xe014;" horiz-adv-x="800" 
d="M400 800l350 -792h-33l-69 158q-49 1 -94 13t-68.5 23.5t-63.5 34.5q-38 21 -60 32t-62.5 22t-86.5 12l-130 -295h-33zM400 726l-174 -393q45 -3 87 -15t65 -23t59 -32q38 -22 58.5 -32t59 -21.5t79.5 -12.5zM427 -102l36 -49l-36 -49l-36 49z" />
    <glyph glyph-name="V.1" unicode="&#xe015;" horiz-adv-x="847" 
d="M50 800h33l341 -715l340 715h33l-373 -786zM424 -102l35 -49l-35 -49l-36 49z" />
    <glyph glyph-name="U.1" unicode="&#xe016;" horiz-adv-x="699" 
d="M50 800h30v-502q0 -121 84 -192q76 -64 186 -64t186 64q83 71 83 192v502h31v-502q0 -135 -95 -215q-84 -71 -205 -71t-206 71q-94 80 -94 215v502zM350 -102l36 -49l-36 -49l-36 49z" />
    <glyph glyph-name="S.1" unicode="&#xe017;" horiz-adv-x="707" 
d="M351 808h7q132 -3 214 -76q69 -64 70 -160h-30q0 78 -52.5 131t-127 66t-149 3t-127 -58t-52.5 -118q0 -40 19.5 -67t59.5 -48q51 -28 186 -62q141 -35 194 -62q95 -50 95 -138q0 -55 -26.5 -97t-71.5 -69q-85 -50 -207 -42q-122 7 -206 67q-97 67 -97 173h30
q0 -90 84 -149q78 -54 191 -61t190 38q82 49 82 140q0 38 -19.5 64t-58.5 47q-49 26 -187 60q-139 35 -194 64q-94 52 -94 142q0 68 40.5 117.5t102.5 72t134 22.5zM354 -102l36 -49l-36 -49l-36 49z" />
    <glyph glyph-name="O.1" unicode="&#xe018;" horiz-adv-x="864" 
d="M432 803q77 0 147 -30t124 -86t83 -128.5t29 -151t-29 -151t-83 -128.5t-124 -86t-146.5 -30t-146.5 30t-124 86t-83 128.5t-29 151.5q0 107 51 198t139.5 144t191.5 53zM432 773q-95 0 -176 -49t-128.5 -133t-47.5 -183q0 -73 27 -140.5t76.5 -118.5t114 -79t134.5 -28
t135 28t114.5 79t76.5 118.5t27 140t-27 140t-76.5 118.5t-114.5 79t-135 28zM432 -102l36 -49l-36 -49l-36 49z" />
    <glyph glyph-name="N.2" unicode="&#xe019;" horiz-adv-x="743" 
d="M663 803h30v-15v-774h-30q0 74 -92 172q-12 13 -24 25.5t-29.5 28.5t-27 24.5t-33 29t-29.5 25.5t-35 29.5t-31 26.5q-150 126 -213 202q-44 54 -69 103v-654v-15h-30v15v774h30q0 -93 92 -204q62 -73 209 -198q6 -4 32.5 -26.5t34 -29.5t30 -26t33 -29t27.5 -25.5
t30 -28.5t25 -26q46 -49 70 -91v672v15zM372 -102l36 -49l-36 -49l-36 49z" />
    <glyph glyph-name="N.3" unicode="&#xe01a;" horiz-adv-x="744" 
d="M50 812l614 -728l-1 704v15h30v-15l1 -787l-614 728l1 -702v-15h-30v15zM372 -102l36 -49l-36 -49l-36 49z" />
    <glyph glyph-name="E.1" unicode="&#xe01b;" horiz-adv-x="599" 
d="M50 805h30h441v-30h-441v-352h408v-31h-408v-352h469v-30h-469h-30v0v2v763v30zM302 -102l36 -49l-36 -49l-36 49z" />
    <glyph glyph-name="D.1" unicode="&#xe01c;" horiz-adv-x="682" 
d="M50 800h30h214q82 0 147 -33.5t109 -91.5q84 -111 82 -271q-1 -160 -86 -271q-45 -58 -109.5 -91.5t-146.5 -33.5h-176h-34h-30v792zM80 770v-731h210q146 0 232 113q79 103 80 252.5t-76 252.5q-85 113 -232 113h-214zM344 -102l36 -49l-36 -49l-36 49z" />
    <glyph glyph-name="C.1" unicode="&#xe01d;" horiz-adv-x="761" 
d="M432 803q139 0 246 -92l11 -10l-19 -23l-12 10q-52 46 -117.5 67.5t-133.5 16.5t-129.5 -36.5t-107.5 -84.5t-69 -120t-20.5 -138.5t31 -136t78.5 -113.5t113.5 -75.5t132 -25.5t132 28t112.5 77l10 11l22 -21l-11 -11q-53 -54 -122 -83.5t-143.5 -30.5t-143.5 27.5
t-123 81.5t-85 123t-34 147t22 149.5t74.5 130t116.5 92t142 39.5q9 1 18 1h9zM381 -102l36 -49l-36 -49l-36 49z" />
    <glyph glyph-name="A.3" unicode="&#xe01e;" horiz-adv-x="800" 
d="M400 800l350 -792h-33l-97 221h-439l-98 -221h-33zM400 726l-206 -467h412zM400 -102l36 -49l-36 -49l-36 49z" />
    <glyph glyph-name="A.1" unicode="&#xe01f;" horiz-adv-x="984" 
d="M492 808l442 -1008h-33l-129 294h-560l-129 -294h-33zM492 732l-267 -608h534z" />
    <glyph glyph-name="N.1" unicode="&#xe020;" horiz-adv-x="906" 
d="M50 805l776 -927l-1 908v15h30v-15l1 -992l-776 928l1 -906v-16h-30v16z" />
    <glyph glyph-name="H.1" unicode="&#xe021;" horiz-adv-x="780" 
d="M50 800h30v-485h620v485h30v-1000h-30v485h-620v-485h-30v1000z" />
    <glyph glyph-name="multiply" unicode="&#xd7;" horiz-adv-x="645" 
d="M50 550l273 -230l273 230v-40l-250 -210l250 -210v-40l-273 230l-273 -230v39l250 211l-250 211v39z" />
    <glyph glyph-name="currency" unicode="&#xa4;" 
 />
    <glyph glyph-name="yen" unicode="&#xa5;" horiz-adv-x="972" 
d="M50 800h39l397 -486l398 486h39l-421 -516v-22h225v-30h-225v-23h225v-30h-225v-379h-31v379h-208v30h208v23h-208v30h208v22z" />
    <glyph glyph-name="cent" unicode="&#xa2;" horiz-adv-x="761" 
d="M432 697q139 0 246 -92l11 -10l-19 -23l-12 10q-52 46 -117.5 67.5t-133.5 16.5t-129.5 -36.5t-107.5 -84.5t-69 -120t-20.5 -138.5t31 -136t78.5 -113.5t113.5 -75.5t132 -25.5t132 28t112.5 77l10 11l22 -21l-11 -11q-50 -52 -115.5 -81.5t-136.5 -32.5v-75h-30v75
q-145 5 -250 109q-54 53 -85 123t-34 147t22 149.5t75 130.5q48 56 113 90t138 41v79h30v-78h4z" />
    <glyph glyph-name="exclamdown" unicode="&#xa1;" horiz-adv-x="130" 
d="M50 -256h30v953h-30v-953zM50 753h30v30h-30v-30z" />
    <glyph glyph-name="questiondown" unicode="&#xbf;" horiz-adv-x="598" 
d="M513 770h-30v29h30v-29zM299 -212q-100 -1 -170 49q-79 57 -79 155q0 91 81 176q30 31 75 67.5t80 62.5t73.5 63.5t64.5 75t42.5 93t16.5 121.5v84h30v-84q0 -69 -17 -127t-43.5 -98t-66 -79t-75.5 -66t-81.5 -64.5t-76.5 -69.5q-73 -76 -73 -155q0 -82 67 -130
q62 -44 152 -43.5t152 45.5q67 49 67 130h30q0 -97 -79 -154q-70 -51 -170 -52z" />
    <glyph glyph-name="Ntilde" unicode="&#xd1;" horiz-adv-x="905" 
d="M605 969l20 -28q-25 -34 -47 -47.5t-37.5 -10t-29.5 14.5t-27 21.5t-26.5 15t-30.5 -8t-37 -45.5l-21 26q25 37 46 53t36.5 13t29 -13t27 -21.5t27 -16.5t31.5 5.5t39 41.5zM50 800h30q1 -120 118 -261q78 -94 264 -253q7 -6 40.5 -34.5t43.5 -37t38 -33t41.5 -37
t35 -32.5t38 -36.5t31.5 -33.5q65 -70 95 -129v873v14h30v-14v-986h-30q0 95 -117 222q-13 14 -28.5 29.5l-28.5 28.5t-33.5 31t-32 28.5t-35.5 31.5t-34 29.5t-37.5 32t-35.5 30.5q-91 77 -155 137t-113 120q-64 76 -95 146v-851v-15h-30v15v985z" />
    <glyph glyph-name="Eth" unicode="&#xd0;" horiz-adv-x="957" 
d="M179 800h305q103 0 184 -42t136 -116q52 -69 78 -158t25 -184t-28 -184t-80 -159q-56 -73 -137 -115t-183 -42h-300v0v514h-129v30h129v456v0zM209 314v-484h270q186 0 296 146q49 64 75 149t27 175.5t-24 175t-73 148.5q-109 146 -296 146h-275v-426h305v-30h-305z" />
    <glyph glyph-name="Oslash" unicode="&#xd8;" horiz-adv-x="1058" 
d="M529 770q-89 0 -171.5 -35.5t-145.5 -101.5t-97.5 -152.5t-34.5 -180t34.5 -179.5t97.5 -152q28 -29 60 -53l463 802q-97 52 -206 52zM782 800h35l-41 -71q51 -31 93 -75q67 -70 103.5 -162t36.5 -191t-36.5 -191t-104 -162.5t-155.5 -108.5t-184 -38q-133 0 -247 72
l-42 -73h-35l52 90q-36 26 -67 58q-67 70 -103.5 162t-36.5 191t36.5 191t104 162t155.5 108.5t183 38.5q117 0 221 -56zM297 -101q107 -68 232 -68q90 0 172.5 36t145.5 102t97.5 152t34.5 179.5t-34.5 180t-97.5 152.5q-39 41 -86 70z" />
    <glyph glyph-name="divide" unicode="&#xf7;" horiz-adv-x="563" 
d="M266 150h30v-30h-30v30zM266 464h30v-30h-30v30zM50 315h464v-30h-464v30z" />
    <glyph glyph-name="eth" unicode="&#xf0;" horiz-adv-x="957" 
d="M179 800h305q103 0 184 -42t136 -116q52 -69 78 -158t25 -184t-28 -184t-80 -159q-56 -73 -137 -115t-183 -42h-300v0v514h-129v30h129v456v0zM209 314v-484h270q186 0 296 146q49 64 75 149t27 175.5t-24 175t-73 148.5q-109 146 -296 146h-275v-426h305v-30h-305z" />
    <glyph glyph-name="ntilde" unicode="&#xf1;" horiz-adv-x="905" 
d="M605 969l20 -28q-25 -34 -47 -47.5t-37.5 -10t-29.5 14.5t-27 21.5t-26.5 15t-30.5 -8t-37 -45.5l-21 26q25 37 46 53t36.5 13t29 -13t27 -21.5t27 -16.5t31.5 5.5t39 41.5zM50 800h30q1 -120 118 -261q78 -94 264 -253q7 -6 40.5 -34.5t43.5 -37t38 -33t41.5 -37
t35 -32.5t38 -36.5t31.5 -33.5q65 -70 95 -129v873v14h30v-14v-986h-30q0 95 -117 222q-13 14 -28.5 29.5l-28.5 28.5t-33.5 31t-32 28.5t-35.5 31.5t-34 29.5t-37.5 32t-35.5 30.5q-91 77 -155 137t-113 120q-64 76 -95 146v-851v-15h-30v15v985z" />
    <glyph glyph-name="oslash" unicode="&#xf8;" horiz-adv-x="1058" 
d="M529 770q-89 0 -171.5 -35.5t-145.5 -101.5t-97.5 -152.5t-34.5 -180t34.5 -179.5t97.5 -152q28 -29 60 -53l463 802q-97 52 -206 52zM782 800h35l-41 -71q51 -31 93 -75q67 -70 103.5 -162t36.5 -191t-36.5 -191t-104 -162.5t-155.5 -108.5t-184 -38q-133 0 -247 72
l-42 -73h-35l52 90q-36 26 -67 58q-67 70 -103.5 162t-36.5 191t36.5 191t104 162t155.5 108.5t183 38.5q117 0 221 -56zM297 -101q107 -68 232 -68q90 0 172.5 36t145.5 102t97.5 152t34.5 179.5t-34.5 180t-97.5 152.5q-39 41 -86 70z" />
    <glyph glyph-name="yacute" unicode="&#xfd;" horiz-adv-x="972" 
d="M492 1044l23 -20l-120 -143l-23 19zM50 800h39l397 -486l398 486h39l-421 -516v-484h-31v484z" />
    <glyph glyph-name="brokenbar" unicode="&#xa6;" 
 />
    <glyph glyph-name="dieresis" unicode="&#xa8;" 
 />
    <glyph glyph-name="ordfeminine" unicode="&#xaa;" 
 />
    <glyph glyph-name="logicalnot" unicode="&#xac;" 
 />
    <glyph glyph-name="uni00B2" unicode="&#xb2;" 
 />
    <glyph glyph-name="uni00B3" unicode="&#xb3;" 
 />
    <glyph glyph-name="acute" unicode="&#xb4;" 
 />
    <glyph glyph-name="mu" unicode="&#xb5;" 
 />
    <glyph glyph-name="cedilla" unicode="&#xb8;" 
 />
    <glyph glyph-name="uni00B9" unicode="&#xb9;" 
 />
    <glyph glyph-name="ordmasculine" unicode="&#xba;" 
 />
    <glyph glyph-name="onequarter" unicode="&#xbc;" 
 />
    <glyph glyph-name="onehalf" unicode="&#xbd;" 
 />
    <glyph glyph-name="threequarters" unicode="&#xbe;" 
 />
    <glyph glyph-name="Thorn" unicode="&#xde;" 
 />
    <glyph glyph-name="thorn" unicode="&#xfe;" 
 />
    <glyph glyph-name="c_o" unicode="&#xe035;" horiz-adv-x="927" 
d="M529 800q84 0 164 -30t144 -87l12 -10l-20 -22l-11 9q-68 59 -151 87t-170 21.5t-165.5 -47t-137 -108.5t-88 -154.5t-26 -178t40 -175t100 -146.5t144.5 -96.5t168.5 -32.5t168 36t143.5 99l10 11l22 -21l-11 -11q-66 -68 -152.5 -105.5t-180 -38.5t-180.5 35
t-154.5 103t-106 155.5t-42 186t27.5 189t93.5 164t146 116t177.5 50.5q11 1 23 1h11zM531.5 600q120.5 0 205.5 -88t85 -212t-85 -212t-205.5 -88t-205.5 88t-85 212t85 212t205.5 88zM531.5 570q-107.5 0 -184 -79t-76.5 -191t76.5 -191t184 -79t184 79t76.5 191
t-76.5 191t-184 79z" />
    <glyph glyph-name="a.1" unicode="&#xe036;" horiz-adv-x="800" 
d="M400 800l350 -792h-33l-69 158q-49 1 -94 13t-68.5 23.5t-63.5 34.5q-38 21 -60 32t-62.5 22t-86.5 12l-130 -295h-33zM400 726l-174 -393q45 -3 87 -15t65 -23t59 -32q38 -22 58.5 -32t59 -21.5t79.5 -12.5zM427 -102l36 -49l-36 -49l-36 49z" />
    <glyph glyph-name="v.1" unicode="&#xe037;" horiz-adv-x="847" 
d="M50 800h33l341 -715l340 715h33l-373 -786zM424 -102l35 -49l-35 -49l-36 49z" />
    <glyph glyph-name="u.1" unicode="&#xe038;" horiz-adv-x="699" 
d="M50 800h30v-502q0 -121 84 -192q76 -64 186 -64t186 64q83 71 83 192v502h31v-502q0 -135 -95 -215q-84 -71 -205 -71t-206 71q-94 80 -94 215v502zM350 -102l36 -49l-36 -49l-36 49z" />
    <glyph glyph-name="s.1" unicode="&#xe039;" horiz-adv-x="707" 
d="M351 808h7q132 -3 214 -76q69 -64 70 -160h-30q0 78 -52.5 131t-127 66t-149 3t-127 -58t-52.5 -118q0 -40 19.5 -67t59.5 -48q51 -28 186 -62q141 -35 194 -62q95 -50 95 -138q0 -55 -26.5 -97t-71.5 -69q-85 -50 -207 -42q-122 7 -206 67q-97 67 -97 173h30
q0 -90 84 -149q78 -54 191 -61t190 38q82 49 82 140q0 38 -19.5 64t-58.5 47q-49 26 -187 60q-139 35 -194 64q-94 52 -94 142q0 68 40.5 117.5t102.5 72t134 22.5zM354 -102l36 -49l-36 -49l-36 49z" />
    <glyph glyph-name="o.1" unicode="&#xe03a;" horiz-adv-x="864" 
d="M432 803q77 0 147 -30t124 -86t83 -128.5t29 -151t-29 -151t-83 -128.5t-124 -86t-146.5 -30t-146.5 30t-124 86t-83 128.5t-29 151.5q0 107 51 198t139.5 144t191.5 53zM432 773q-95 0 -176 -49t-128.5 -133t-47.5 -183q0 -73 27 -140.5t76.5 -118.5t114 -79t134.5 -28
t135 28t114.5 79t76.5 118.5t27 140t-27 140t-76.5 118.5t-114.5 79t-135 28zM432 -102l36 -49l-36 -49l-36 49z" />
    <glyph glyph-name="n.1" unicode="&#xe03b;" horiz-adv-x="743" 
d="M663 803h30v-15v-774h-30q0 74 -92 172q-12 13 -24 25.5t-29.5 28.5t-27 24.5t-33 29t-29.5 25.5t-35 29.5t-31 26.5q-150 126 -213 202q-44 54 -69 103v-654v-15h-30v15v774h30q0 -93 92 -204q62 -73 209 -198q6 -4 32.5 -26.5t34 -29.5t30 -26t33 -29t27.5 -25.5
t30 -28.5t25 -26q46 -49 70 -91v672v15zM372 -102l36 -49l-36 -49l-36 49z" />
    <glyph glyph-name="n.2" unicode="&#xe03c;" horiz-adv-x="744" 
d="M50 812l614 -728l-1 704v15h30v-15l1 -787l-614 728l1 -702v-15h-30v15zM372 -102l36 -49l-36 -49l-36 49z" />
    <glyph glyph-name="e.1" unicode="&#xe03d;" horiz-adv-x="599" 
d="M50 805h30h441v-30h-441v-352h408v-31h-408v-352h469v-30h-469h-30v0v2v763v30zM302 -102l36 -49l-36 -49l-36 49z" />
    <glyph glyph-name="d.1" unicode="&#xe03e;" horiz-adv-x="682" 
d="M50 800h30h214q82 0 147 -33.5t109 -91.5q84 -111 82 -271q-1 -160 -86 -271q-45 -58 -109.5 -91.5t-146.5 -33.5h-176h-34h-30v792zM80 770v-731h210q146 0 232 113q79 103 80 252.5t-76 252.5q-85 113 -232 113h-214zM344 -102l36 -49l-36 -49l-36 49z" />
    <glyph glyph-name="c.2" unicode="&#xe03f;" horiz-adv-x="761" 
d="M432 803q139 0 246 -92l11 -10l-19 -23l-12 10q-52 46 -117.5 67.5t-133.5 16.5t-129.5 -36.5t-107.5 -84.5t-69 -120t-20.5 -138.5t31 -136t78.5 -113.5t113.5 -75.5t132 -25.5t132 28t112.5 77l10 11l22 -21l-11 -11q-53 -54 -122 -83.5t-143.5 -30.5t-143.5 27.5
t-123 81.5t-85 123t-34 147t22 149.5t74.5 130t116.5 92t142 39.5q9 1 18 1h9zM381 -102l36 -49l-36 -49l-36 49z" />
    <glyph glyph-name="a.2" unicode="&#xe040;" horiz-adv-x="800" 
d="M400 800l350 -792h-33l-97 221h-439l-98 -221h-33zM400 726l-206 -467h412zM400 -102l36 -49l-36 -49l-36 49z" />
    <glyph glyph-name="a.3" unicode="&#xe041;" horiz-adv-x="984" 
d="M492 808l442 -1008h-33l-129 294h-560l-129 -294h-33zM492 732l-267 -608h534z" />
    <glyph glyph-name="n.3" unicode="&#xe042;" horiz-adv-x="906" 
d="M50 805l776 -927l-1 908v15h30v-15l1 -992l-776 928l1 -906v-16h-30v16z" />
    <glyph glyph-name="h.1" unicode="&#xe047;" horiz-adv-x="780" 
d="M50 800h30v-485h620v485h30v-1000h-30v485h-620v-485h-30v1000z" />
    </font>
</defs>
</svg>
